<svg xmlns="http://www.w3.org/2000/svg" viewBox="0 0 955.8 135.7">
  <title>impact-2020-logo</title>
  <path d="M175.9,8.8h25V139.1h-25Zm41.5,130.3L226.7,8.8h24.7L266,73.7l2.8,19.1h.3l3.5-19.1L288.3,8.8h23.3l9.2,130.3H297l-3.5-60L293.1,53h-.3l-4.5,25.9-14,60.2H259.7L246.5,78.9l-4-25.9h-.4l-.3,26.1-3.8,60ZM337.1,8.8h34.2c23.6,0,38.4,14.3,38.4,41.6s-17.2,40.3-38.4,40.3H362v48.4H337.1ZM362,27.6V73h7.1c11.4,0,16.2-7.8,16.2-23s-4.8-22.4-16.2-22.4Zm100.8,84.9H432.7l-5.8,26.6H405.5L436.3,8.8h26.5l30.8,130.3H468.5ZM436.5,94.4H459l-8-37.6-2.8-17.9h-.3l-3.2,17.9Zm133.8,41.4c-5,3-11.6,5.4-22.3,5.4-31.5,0-51.8-21.6-51.8-66S518.5,6.9,547.5,6.9c10.6,0,17.4,1.5,22.8,4.7l-5.7,18.8a35.3,35.3,0,0,0-15.3-3.2c-17.4,0-27.4,17.3-27.5,47.7s10.4,45.9,27.8,45.9a30.2,30.2,0,0,0,15-3.6ZM603.4,28.1H579.5V8.8h72.9V28.1H628.8v111H603.4Z" transform="translate(-15.9 -6.2)" fill="#bb2031"/>
  <path d="M660.4,139.1V124.3L682.2,86c8.7-15.1,13.9-28.2,13.9-41.6,0-10.4-4.7-17-15.3-17a31.2,31.2,0,0,0-15.5,4.1l-4.7-19c5.6-3.3,13.2-5.7,24.7-5.7,25.4,0,36.2,14.4,36.2,36.2,0,18.2-10.1,36-22.1,56.4l-12,20.1h33.9V139ZM773,141.9c-23.8,0-39.8-18.6-39.8-67.2S749.7,6.2,773,6.2s40,20.5,39.8,68.5S796.8,141.9,773,141.9Zm0-20.4c9.6,0,14.8-11.3,14.8-47.1S782.6,26.5,773,26.5s-14.8,13.3-14.8,47.9S763.5,121.5,773,121.5Zm46.3,17.6V124.3L841,86c8.8-15.1,14-28.2,14-41.5,0-10.5-4.7-17.1-15.3-17.1a31.3,31.3,0,0,0-15.5,4.2l-4.7-19c5.5-3.3,13.2-5.7,24.7-5.7,25.4,0,36.2,14.4,36.2,36.2,0,18.2-10.1,36-22.1,56.3l-12,20.2h33.9v19.5Zm112.6,2.8c-23.9,0-39.9-18.6-39.9-67.2S908.5,6.2,931.8,6.2s40,20.5,39.9,68.5S955.7,141.9,931.9,141.9Zm0-20.4c9.5,0,14.8-11.3,14.8-47.1s-5.3-47.9-14.8-47.9-14.8,13.3-14.8,47.9S922.3,121.5,931.9,121.5Z" transform="translate(-15.9 -6.2)" fill="#00307b"/>
  <path d="M15.9,24.9h140v4H15.9Zm140,77.4-13.8-8v6H115.7v4h26.4v6Zm-140-2H95.7v4H15.9Zm0-37.7h140v4H15.9Z" transform="translate(-15.9 -6.2)" fill="#00307b"/>
  <path d="M15.9,43.8H56.1v4H15.9Zm140,2-13.8-8v6h-66v4h66v5.9ZM15.9,81.5h99.8v4H15.9Zm0,37.7h140v4H15.9Z" transform="translate(-15.9 -6.2)" fill="#bb2031"/>
</svg>
