<svg xmlns="http://www.w3.org/2000/svg" xmlns:xlink="http://www.w3.org/1999/xlink" viewBox="0 0 302.92 45.38"><defs><style>.cls-1{fill:none;}.cls-2{clip-path:url(#clip-path);}.cls-3{fill:#287ec2;}.cls-4{fill:#0f3c62;}.cls-5{fill:#fff;}.cls-6,.cls-7{fill:#231f20;}.cls-7{fill-rule:evenodd;}</style><clipPath id="clip-path"><circle class="cls-1" cx="22.49" cy="21.36" r="21.36" transform="matrix(0.13, -0.99, 0.99, 0.13, -1.61, 40.89)"/></clipPath></defs><title>bellingham-herald</title><g id="Layer_2" data-name="Layer 2"><g id="blh"><g class="cls-2"><circle class="cls-3" cx="22.49" cy="21.36" r="21.36" transform="matrix(0.13, -0.99, 0.99, 0.13, -1.61, 40.89)"/><polygon class="cls-4" points="1.98 19.66 2.5 19.16 2.72 18.93 3.59 18.18 4.52 17.82 5.43 17.38 5.98 17.07 6.12 17.04 6.41 16.89 6.97 16.84 7.37 16.78 8.1 16.48 8.29 16.3 8.64 16.3 8.83 16.14 9.02 15.61 9.4 15.51 9.69 15.46 9.94 15.57 10.44 15.77 10.83 15.73 12.77 14.79 14.76 13.85 15.73 13.24 16.88 12.66 17.42 12.4 17.99 12.17 18.4 12.07 19.07 11.95 20.13 12.07 21.81 12.23 23.68 13.48 24.95 15.11 31.68 16.74 32.34 16.81 32.53 16.84 32.69 16.63 32.91 16.48 33.17 16.42 33.4 16.33 33.52 16.25 33.66 16.07 33.92 15.7 34.18 15.49 34.48 15.51 35.99 16.56 36.34 16.75 36.52 16.77 36.72 16.86 37.66 17.41 38.39 17.86 38.88 18.26 39.08 18.05 39.23 17.91 39.3 17.73 39.29 17.64 40.07 18.08 40.37 18.26 40.81 18.43 41.13 18.38 41.24 18.66 41.39 19.04 41.57 19.28 41.95 19.54 42.26 19.77 43.41 20.98 44.04 22.48 42.87 36.92 33.92 42.01 23.51 44.83 15.16 42.8 4.14 35.59 0 26.9 0.9 21.41 1.98 19.66"/><path class="cls-5" d="M20.06,17.93,20,17.56l-.06-.27L19.78,17l-.1-.36.09-.38L20,15.9l.18,0,.08.17.15,0,.2-.16-.06-.14h-.23l-.08-.11,0-.24.19-.26.19-.21,0-.29.09-.25.14-.3-.08-.43.14-.38L21,12.9l.38-.38-.16-.12-.47-.17-.49-.18-1.08-.14.71-.13,1.51.07,1.72.41,2.18.7.91.51,1,.47.68.58,1.25.59.71.38.72.5,1.16.76-.22.06-.24.14-.15,0-.17.14-.12.18-.12.11-.15.1-.23,0-.16.09-.32.23-.31.12-.26.09-.23.29-.32,0L28,17.79l-.29-.25-.62-.24L26.64,17l-.25-.23L26,16.53l-.14-.26-.36-.14L25.08,16l-.69-.48L24,15.25l-.41-.12-.35,0,.21.3.18.32.09.31.38.38.11.24-.15.15-.26.07-.24-.14a1.28,1.28,0,0,0-.14-.23L23,16.25l0,0-.08-.16.15-.21.14-.14.12-.1,0-.12-.17,0-.16.15-.12.16-.08.12-.23.15.05.23.13.12v.12l-.26.17-.05.1.34.1.26.32.27.19.2.2-.14.41-.09.12L23,18.09l-.27-.44-.2-.18-.14-.09L22,17.27l-.09-.18-.22-.15h-.22l-.08-.05,0-.14-.14,0,0,.1-.05.18-.06.18-.09.17-.18.06-.32.29,0,.13.13.16.23.36.25.25.25.24,0,.26v.13l-.28.2h-.26l-.16,0-.15.09-.24,0-.23-.06-.21-.26,0-.13L20,19l.27.08.14.15.12,0v-.15l-.27-.22-.15-.19.07-.16.16-.07.16-.15,0-.16h-.16l-.12.11s0,0,0,.1v.09l-.12.22-.08.06-.12.13H19.6l-.05-.15.16-.29.09-.09L20,18.2l.08-.15Z"/><path class="cls-5" d="M19.32,19.52l.27-.05-.07-.11,0-.21.16.07.11.17.08.05.1,0,0,.11-.11,0-.16.15-.09,0-.13.09-.09.08h0l-.1-.07-.06-.06a.53.53,0,0,1,.06-.1l.12,0,.16-.06.15-.05.12,0Z"/><path class="cls-5" d="M19.29,20.06l.05.06.05.05.1.06.06.13.14.06s.11,0,.11-.06,0-.15,0-.15L19.73,20v0l-.06-.09h0l-.12.07L19.4,20Z"/><polygon class="cls-5" points="20.07 20.26 20.07 20.25 20.11 20.13 20.12 20.09 20.08 19.96 20.02 19.87 20.09 19.85 20.19 19.85 20.29 19.99 20.28 20.13 20.23 20.19 20.07 20.26"/><polygon class="cls-5" points="18.77 21.43 18.94 21.28 19.05 21.17 19.21 21.06 19.33 20.96 19.46 20.89 19.62 20.82 19.76 20.75 19.89 20.7 20.04 20.68 20.1 20.66 20.17 20.61 20.24 20.51 20.3 20.44 20.41 20.43 20.44 20.49 20.44 20.55 20.35 20.66 20.22 20.73 20.08 20.8 19.82 20.95 19.59 21.05 19.45 21.12 19.35 21.24 19.27 21.32 19.1 21.32 18.99 21.4 18.77 21.43"/><polygon class="cls-5" points="18.02 21.14 18.27 21.15 18.53 21.09 18.7 20.98 18.72 20.93 18.76 20.84 18.78 20.78 18.85 20.68 18.9 20.65 19.01 20.67 19.1 20.72 19.23 20.8 19.23 20.82 19.2 20.9 19.15 20.93 18.96 20.98 18.83 20.98 18.75 21.04 18.66 21.11 18.52 21.17 18.42 21.19 18.02 21.14"/><path class="cls-5" d="M18.33,20.52a.91.91,0,0,1,.1-.13l.18-.07v.09l-.07.15-.14,0Z"/><path class="cls-5" d="M18.29,20.64h.18l.14-.07s.11-.09.11-.09l0-.09v-.1l0,0h.09l0,.08v.1l0,.1-.09.09-.14,0Z"/><path class="cls-5" d="M15.69,23.05l.26-.16.32-.14.14-.15h-.07l-.07,0-.1,0-.07-.11,0-.1.09-.06.11,0,0,0s0,.08,0,.08l.13.05.06,0,.19,0h.06s0,0,0,.05-.12.08-.12.08l-.2.08-.27.14L16,23l-.19.1Z"/><path class="cls-5" d="M16.93,22.34H17v-.08L17,22.21l-.09-.06h0l0-.07,0-.12L17,22H17l.06.06h.18l.12-.07h.07l.06,0h.07l.09,0,0,0a.93.93,0,0,0,0-.1l-.13,0-.18.05h-.05l-.08,0-.08-.06,0,0h.12l.09,0,.18,0h.08l.06.05a.22.22,0,0,1,.05.06l0,.11-.11.14s-.06,0,0,.05.14,0,.15,0L18,22a.58.58,0,0,0,.08-.1l0-.17-.13-.08-.23-.05-.13,0,0-.07,0-.06-.05,0H17.3l-.08,0-.12.09.11,0,0,.06,0,.06-.15.06-.21.09-.1,0-.12.05-.09,0L16.5,22l0,.05v.11l.05.07a.06.06,0,0,0,.06.05h.16l.06,0h.11l.08,0Z"/><path class="cls-5" d="M19.92,21.79h0l.17-.27,0-.16.14-.22.36-.35.43-.37.4-.16.87-.18.43-.09.42-.1.39-.09.15,0,.71,0,.29,0H25l.29-.06.15,0,.07.09-.19.19-.27.07h-.29a1.43,1.43,0,0,0-.27-.07l-.26,0L24,20h-.33l-.28.07-.17,0,0,.12.09.11s0,0,0,.05,0,.08,0,.08h-.24a.77.77,0,0,0-.09-.13l-.21-.07-.27,0h-.15l0,.08s-.06,0,0,.05l.19,0,.19,0,.11.06.08,0v0l0,0-.18.08-.18.14-.2.15-.06.16.05.12s-.16.21-.19.2l-.31,0-.18.17-.28.09h-.24l.21.13a1.17,1.17,0,0,1,0,.26l-.19,0L20.82,22,20.4,22l-.29,0L20,22Z"/><path class="cls-5" d="M25.94,19.53l.47,0h.35l.45.09.31-.09.35-.17.29-.14L28.11,19,28,18.75l-.31-.13-.32-.09s-.29-.13-.29-.13L27,18.25l.39,0,.38.14.52.1h.2V18.4a1.54,1.54,0,0,0-.18-.16l-.41-.16-.53-.18L27,17.77l-.37,0-.35-.15L26,17.41l-.26-.07s.27.45.28.45a1.12,1.12,0,0,1,.22.16l.16.24a1.32,1.32,0,0,1,.1.3,1.73,1.73,0,0,0,0,.27l-.08.26H26.1l-.2,0-.21,0s0,0,0,0l0-.17s.08-.07,0-.09a1.93,1.93,0,0,0-.25,0l-.15.12V19l.19.1v.26l.08.1.14.09Z"/><path class="cls-5" d="M35.5,21.14l-.3-.52-.51-.7-.21-.5L34,18.88l-.43-.36-.35-.17-.3-.46-.24-.41-.13-.3,0-.34.31.13.5.21.73.21.53.08h.19L34.57,17l-.26-.24-.22-.15-.4-.31-.06-.09.27,0,.41.15.2.08.15,0,0-.2-.23-.44-.18-.26,0-.15.35,0,1.81,1.24.41.19.27.18.09.24.55.38.62.49.55.23-.1.36-.13.12,0,.4-.12.12-.09,0-.11-.24-.18,0-.2.15-.09.49-.3.56-.48.2,0-.29-.52.23-.47.27-.27.26-.16.2Z"/><polygon class="cls-5" points="32.24 18.31 32.29 18.29 32.41 18.23 32.53 18.06 32.41 17.91 31.91 17.79 31.86 17.76 32.11 18 32.24 18.31"/><path class="cls-5" d="M32,17.44,32,17l.08-.09.24.19a1.3,1.3,0,0,0,.05.14c0,.05.06.05,0,.12S32,17.44,32,17.44Z"/><polygon class="cls-5" points="33.54 18.9 33.31 18.55 33.63 18.73 33.55 18.85 33.54 18.9"/><polygon class="cls-5" points="33.11 22.03 33.16 21.81 33.25 21.68 33.32 21.58 33.22 21.23 33.22 20.95 33.42 20.48 33.45 20.21 33.8 20.45 34.01 20.62 34.3 20.8 34.63 21.06 34.78 21.29 34.88 21.29 34.98 21.12 35.1 21.06 35.26 21.12 35.48 21.23 35.26 21.35 34.98 21.41 34.62 21.32 34.36 21.12 34.27 21.01 34.18 20.95 34.02 20.94 33.87 21.11 33.81 21.33 33.81 21.53 33.58 21.68 33.38 21.91 33.11 22.03"/><path class="cls-5" d="M39.08,18.12l.24.11.32.44.11.24.29.42.28.25.26,0,.17.16.3.09.16.1.26.25.21.26v.21L42,21l.49.23.07.28-.12.41-.35.24-.06.43a1.1,1.1,0,0,0,.23.09h.47l.14-.26v-.21l0-.32.08-.14-.15-.12v-.09l.27.18.08.18,0,.28v.16l-.14.05-.18.36,0,.25a.18.18,0,0,1-.1,0,2.28,2.28,0,0,1-.34-.11l.06.2.2.08.23.06H43s0-.23,0-.27.06-.4.06-.4l.09-.2.15,0,.15.09-.12.37-.13.39-.11.23v.18l.11.08h.21l.25-.94-.31-.65-.21-.51L43,21.21l-.2-.47,0-.17.14.11.23.5.11.21.15.22,0,.15,0,0,0-.14v-.44l-.08-.55-.09-.06-.2-.06L43,20.45l-.2-.21L42.64,20l-.15-.26-.08-.14-.17-.1-.3-.23-.09-.11-.16-.24-.13-.27-.16-.14-.22-.09,0,.21.17.44.14.18.12.16.33.21.26.18.29.32,0,.24.1.26.06.26a.32.32,0,0,1,.11.12.41.41,0,0,1,0,.13l-.34-.17s0-.34-.06-.37a.77.77,0,0,1-.1-.21l-.14-.15L41.89,20l-.26-.13-.35-.16-.12-.28L41,19l-.09-.31-.19-.41-.18-.14,0,.17.09.32,0,.29-.08-.18-.21-.32,0-.25-.1-.16L40,17.83l-.22,0-.18-.15-.21-.1h-.19l0,.17Z"/><polygon class="cls-5" points="38.33 23.52 38.34 23.5 38.39 23.33 38.38 23.1 38.19 22.99 38.18 22.82 38.36 22.78 38.54 22.9 38.64 23.05 38.65 23.25 38.59 23.43 38.53 23.48 38.33 23.52"/><path class="cls-5" d="M37.92,22.29l-.17-.09-.15-.09-.21-.2-.2-.24,0-.28.05-.1.06-.14V21l.15.11.15.18.06.34s0,.17.08.21S37.92,22.29,37.92,22.29Z"/><polygon class="cls-5" points="38.64 22.54 38.64 22.43 38.73 22.41 38.8 22.45 38.89 22.49 38.98 22.34 38.82 22.05 38.86 21.9 39.03 21.91 39.03 21.84 39.03 21.62 38.89 21.64 38.77 21.55 38.77 21.47 38.88 21.47 38.95 21.36 38.95 21.11 38.77 20.83 38.77 20.71 38.77 20.47 38.64 20.13 38.59 19.86 38.54 19.69 38.71 19.86 38.94 20.25 39.15 20.85 39.23 21.35 39.26 22.26 39.08 22.6 38.73 22.78 38.64 22.54"/><polygon class="cls-5" points="30.13 21.11 30.19 20.92 30.27 20.79 30.33 20.59 30.08 20.51 29.96 20.56 29.95 20.71 30.13 21.11"/><polygon class="cls-5" points="29.48 21.43 29.57 21.38 29.72 21.27 29.75 21.18 29.78 21.03 29.75 20.79 29.7 20.73 29.64 20.8 29.54 20.8 29.2 20.89 29.19 21.07 29.35 21.18 29.38 21.32 29.48 21.43"/><polygon class="cls-5" points="28.97 23.77 29.82 23.56 29.79 23.45 30.14 23.34 30.46 23.22 30.51 23.14 30.37 23.02 30.01 22.99 29.17 22.73 28.68 22.41 28.2 22.31 28.11 22.08 27.33 21.77 26.84 21.46 26.4 21.47 26.34 21.7 26.32 22.13 26.55 22.23 27.22 22.32 27.8 22.49 28 22.66 28.14 22.98 28.41 22.99 28.56 23.07 28.38 23.19 28.3 23.25 28.29 23.4 28.27 23.59 28.36 23.66 28.59 23.68 28.97 23.77"/><polygon class="cls-5" points="27.68 24 27.57 23.86 27.53 23.65 27.48 23.42 27.42 23.18 27.38 22.93 27.38 22.78 27.59 22.84 27.63 23.07 27.71 23.27 27.73 23.4 27.68 24"/><polygon class="cls-5" points="26.89 24 26.98 23.74 27.05 23.46 27.02 23.24 26.81 23.16 26.57 23.14 26.28 23.24 26.4 23.54 26.6 23.8 26.75 23.89 26.89 24"/><polygon class="cls-5" points="25.5 24.5 25.56 24.13 25.53 23.86 25.38 23.72 25.31 23.77 25.34 24.07 25.44 24.33 25.5 24.5"/><polygon class="cls-5" points="24.7 24.74 25.02 24.64 25.02 24.45 24.79 24.36 24.57 24.42 24.67 24.65 24.7 24.74"/><polygon class="cls-5" points="18.93 24.89 19.45 24.79 19.86 24.68 20.39 24.45 20.51 24.19 20.47 24.09 20.1 24.12 19.78 24.19 19.52 24.36 19.37 24.47 19.37 24.62 19.23 24.71 19.19 24.62 19.07 24.59 18.93 24.89"/><path class="cls-5" d="M41.09,31l-.45-.21-.44-.17-.47-.14-1-.15L37.52,30l-.73-.2-1-.11-1,.08-.24,0,0,.17.23.26.4.15.1,0-.27.26-.31-.09-.18.11,0,.12-.44,0-1.89-.23-.94.18-.67,0-.35-.2-.08-.12-.64,0-1.05-.2-.57-.29-.55-.21-.9,0-.43.1.22.25.12.35.21.15-.06.17-.61,0,.49.06.12.29-.23.18-.09,0L25.88,31l-.41,0-.71.14L24.61,31a2.15,2.15,0,0,0-.11-.24c0-.05-.11-.28-.11-.28l.23-.09.2,0-.08-.19s-.1-.16-.09-.2.09-.31.09-.31v-.16l.23-.08.07.21v.19l.14.13.07-.48.05.22V30l0,.19.05.14.13.14.05-.28,0-.25-.15-.16,0-.19h.17l.21,0,.2-.07,0-.18.28-.09.33,0,.63-.14.09-.23L27,28.68l-.79-.12-1.15-.18-.75,0-.59-.11h0l0-.07L23.56,28l.41-.12.19-.12.11-.17-.06-.2-.32-.17-.33,0H23l-.31.18-.76.21-.64.23-.41-.23-.61-.19-.74-.31L19,26.84l-.29-.27.12-.31.06-.51.35-.05,1.3.21,1.22.26,1,.61.65.25,1.19.34.79.29,1.13.29.67.41,1.58.16,3.06.42,1.58.37.9.29h1l1.81.16,2.95.64.66.06.51.08.19.17-.07.24Z"/><polygon class="cls-5" points="4.29 27.1 4.93 27.01 6.15 26.64 6.97 26.55 8.37 26.49 9.86 26.04 11.05 25.49 11.14 25.21 11.63 25.4 12.2 25.18 12.14 25.09 12.32 24.88 12.78 24.64 12.78 24.33 12.11 24.33 11.63 24.48 12.08 24.73 11.96 24.88 11.66 24.97 11.29 24.94 10.74 24.85 10.47 25.34 10.44 25.46 10.38 25.67 9.98 25.82 9.19 26.01 8.49 26.07 8.03 26.01 7.79 25.85 7.67 25.76 6.51 25.73 5.26 25.85 4.59 26.37 3.99 26.55 3.83 26.92 4.29 27.1"/><polygon class="cls-5" points="6.48 30.91 6.85 30.54 7.21 30.33 7.91 29.87 8.73 29.38 9.52 29.15 9.56 29.14 8.86 30.02 8.37 30.24 7.79 30.72 7.46 31.12 7.15 31.12 6.63 31.06 6.48 30.91"/><path class="cls-5" d="M12.33,30.63l.42.12.37,0h.39l.31,0,.48.09-.09.25-.58.15s-.18.09-.06.12.82,0,.82,0l.52-.15-.27-.37-.88-.27-.49-.12-.61-.06-.79-.15-.43-.1h-.21l.33.28Z"/><path class="cls-4" d="M28.63,21.27l.09-.19.16-.15.23-.14.22-.08.08-.14,0-.11-.15,0L29,20.33l-.15-.19.07-.1-.24.1-.23.22s0,0,0,0h-.51l0-.15.41-.29s.42-.08.49-.08.4-.07.4-.07l.19.25.05,0,.38,0,0-.21,0-.12.3-.16h.36l.36.09h.22l.19-.19.09-.18.28-.15h.09l.25.08.23.13.15.12.28.19.38.16.2.15,0,.18.32.24.71.46.33.41h.09l.1-.21H35l.15.07.15.05.11-.1-.24-.42L34.63,20l-.05-.1-.06-.06-.22-.33-.08-.17L34,19.14l-.2-.17-.22-.12V19l-.16,0-.13-.26-.16-.17-.13-.2-.24,0h-.44l-.2,0L32,18.2l-.14-.11-.13.1,0,.14,0,.07-.28.05,0-.27.09-.17.08-.07,0-.28,0-.12.18.06.23.09.15,0a1.31,1.31,0,0,0,.19.07l.16,0h.08s.09.06.1,0a1.43,1.43,0,0,0,0-.21l-.34-.09H32l-.17-.16-.09-.22,0-.18-.2,0-.27.07L31,17l-.16.27-.32.21-.3.1-.15.2v.08l.19,0a1.13,1.13,0,0,0,.33-.09l.2-.09.17-.17.15-.1.12-.1.11-.09.06,0,0,.12v.11l-.21.29v.16l-.08.22s-.07.14-.14.17a3.29,3.29,0,0,0-.3.26l-.2.08-.25-.05-.69.19-.33.26-.47.16-.42.12-.67.27-.4.3-.05.34-.12.29-.2.17-.18.43v.22l.11.18.27.1h.25l.41-.16Z"/><path class="cls-4" d="M39.05,22.55l.18-.44,0-1-.1-.53-.19-.5-.18-.43-.09-.18V19l.08-.11.14-.39,0-.06.05-.17.15-.05.13-.08.38.46.39.58.31.31.16.09.09.15-.28.08,0,.15V20l0,.22v.17l-.15.09,0,.44.14.07.18.16.13.36.17.57.27.45.2.08.17.18.11.25-.11.09-.15-.06s-.06-.16-.09-.17a1.72,1.72,0,0,1-.22-.14l-.1-.09-.21-.12-.27-.1-.35,0-.31,0-.21.09-.08.07-.07.25-.14.25-.11.24-.13.21-.14.06-.16-.11,0-.17.07-.16.1-.14Z"/><polygon class="cls-4" points="43.2 24.79 43.16 24.77 42.94 24.7 42.8 24.58 42.8 24.4 42.63 24.15 42.33 23.91 42.04 23.66 41.8 23.27 41.85 22.88 41.91 22.78 41.71 22.37 41.39 21.99 40.99 21.79 41.02 21.64 41.38 21.76 41.62 21.77 41.77 21.91 41.97 22.21 42.22 22.78 42.43 22.77 42.52 22.75 42.59 22.75 42.78 22.91 42.71 23.03 42.53 23.02 42.46 22.98 42.47 23.13 42.62 23.26 42.85 23.36 42.92 23.36 43 23.31 43.02 23.07 43.11 22.71 43.2 22.49 43.26 22.41 43.4 22.48 43.41 22.71 43.44 23.38 43.43 24.48 43.2 24.79"/><path class="cls-4" d="M42.5,28.29l-.36-.2-.16-.2-.24.13-.18.33-.15.33-.27.39-.21,0-.41,0-.39-.3-.2-.13a1.77,1.77,0,0,0-.27,0h-.31l0,.35.09.33-.12.25-.17.11-.31.07-.29-.13-.05-.27,0-.12h-.4v0l-.19.19-.31-.08.06-.34-.13-.47.45.17.2.1.29.16.27.1L39,29l.22-.06,0-.15-.32-.18-.43-.13-.29-.11L38,28.17l-.44-.06-.29.11.15.37v.14l-.26.33-.34,0s0-.26.05-.27a2,2,0,0,0,.2-.38l0-.18L36.87,28l-.31-.39-.18-.28-.13.32,0,.08-.15.11-.34.16-.18,0-.13-.06-.28.06-.21.13.2.21-.13.43.05.16,0,.12-.14.14-.27.06,0-.36.15-.3-.1-.17-.23-.19s.12-.3.15-.3a1.86,1.86,0,0,0,.25-.22l.32-.32V27.3l0-.3.08-.23v-.3l.08-.24.13-.29.23-.43.22-.14H36l.08.15s0,.23,0,.27l-.13.39s0,0-.07.1-.12.22-.12.22-.11.17-.13.22l0,0v.37l.08.08,0,0s0,0,0,0h.08s-.07,0,0,0,.12,0,.16,0-.1,0,.14,0,.27-.07.27-.07l0-.05.09-.15.1-.15.1-.15.07-.07.08,0a.14.14,0,0,1,.11,0c.06,0,.19.07.22.09a.93.93,0,0,0,.19.07l.08,0,0,.06a.3.3,0,0,0,.08.07s.09.08.09.08l0,.07.09.06.09,0a.41.41,0,0,0,.17.06.5.5,0,0,1,.13,0l.11,0s.07-.07,0-.1,0-.12-.13-.2l-.11-.08-.08-.11a.31.31,0,0,1-.06-.17s0-.14-.07-.15a1.06,1.06,0,0,1-.15-.16l0-.07s0,0-.08-.12l-.07-.23v-.2s0-.24,0-.24v0s0,0-.08-.07a.49.49,0,0,0-.13-.06.76.76,0,0,1-.2-.13v-.11l.09-.19.29.11.12.12.15.18.27.3.22.15.22.19a.12.12,0,0,0,.07.07c.06,0,.31.17.31.17l.13.1.08-.08.1-.2s-.05-.08.09,0l.51.23s.24.16.29.18a1.25,1.25,0,0,1,.14.2l.16.12.53.38.26.08.14-.06.16-.33-.08-.37V25.7l-.14-.17h-.08l-.19-.15v-.25a.61.61,0,0,0,.27-.06c.09-.06.14-.24.17-.21s.07.28.08.31l.08.39.13.16,0,0v-.17l.23,0a3.08,3.08,0,0,0,.28.15l.05,0s0,0,.22,0l.25,0a.11.11,0,0,0,.06.12c.08,0,0,.11.07.16s-.06.12-.14.13a1.57,1.57,0,0,1-.29,0,2.49,2.49,0,0,0-.4-.12A.64.64,0,0,1,42,26v.17l.12.26.21-.08h.17l.21.14s-.06,0,.05,0,.24.39.24.39l-.09.25Z"/><path class="cls-4" d="M38.22,21.63l-.15-.21-.2-.22L37.65,21a4,4,0,0,1-.23-.37,2.83,2.83,0,0,1,.07-.28l.29.18.19.05.09-.24-.15-.16-.13-.07,0-.25.1-.17.07-.17,0-.19.11-.12.1.12a1.85,1.85,0,0,0,.24.25l.16,0,0,.34.15.32,0,.53.17.18,0,.23-.13.22s0,.14,0,.16,0,.24,0,.24L38.8,22l-.15.26h-.23s-.05-.16-.1-.18L38.09,22l0-.15Z"/><path class="cls-4" d="M38.43,24.41l-.13-.25L38.16,24,38,23.91l-.18-.17,0-.17,0-.49s0,0,0,0,.32.31.32.31l0,.26s0,.18,0,.2a1.24,1.24,0,0,1,.16.19Z"/><polygon class="cls-4" points="37.67 19.84 37.65 19.68 37.51 19.61 37.33 19.49 36.64 19.49 36.62 19.29 37.05 19.2 37.4 19.33 37.74 19.47 37.67 19.84"/><polygon class="cls-4" points="37.17 19.04 36.53 18.47 36.05 18.24 35.89 18.15 35.8 18.65 36.14 18.72 36.71 18.79 37.17 19.04"/><polygon class="cls-4" points="34.77 17.94 35.09 17.92 35.04 17.8 34.79 17.85 34.77 17.94"/><path class="cls-4" d="M34.79,17.48l-.41,0-.68-.23L33.29,17l-.53-.07-.27-.18v-.16l.07-.07a.89.89,0,0,0,.35,0l.4-.18.23-.12,0-.23.16-.22.19-.23.2-.07.21.16.36.89-.19,0-.42-.08h-.23l.11.21.34.16.32.27Z"/><polygon class="cls-4" points="22.99 14.31 22.74 14.29 22.31 14.24 22.22 14.2 21.92 14.02 21.78 13.74 21.67 13.42 21.74 13.15 21.83 12.83 21.78 12.69 21.76 12.44 22.15 12.6 22.24 12.67 22.67 12.71 22.97 12.96 23.04 13.4 23.08 13.67 23.06 14.27 22.99 14.31"/><path class="cls-4" d="M24.57,13.47l-.39-.07L24,13.17,23.79,13l.32,0,.28.23A1.55,1.55,0,0,1,24.57,13.47Z"/><path class="cls-4" d="M21,19.77h.21l.32-.09.22-.26.14-.25,0-.34-.09-.18-.23-.25-.16-.28s-.19-.36-.16-.45.11-.32.11-.32l.48.18.3.27.29.28.26.34.16.5-.28.3-.41.09-.68.59Z"/><path class="cls-4" d="M3.13,18.6l.58,0a2.5,2.5,0,0,1,.45-.3c.07,0,.76-.25.87-.29a5.32,5.32,0,0,0,.52-.39s.6-.14.69-.14,1-.2,1-.2l0-.37L7,16.78h-.5l-.41.06-.67.35-1.14.48-.57.45Z"/><path class="cls-4" d="M8.61,17l.55-.16s.23-.23.3-.23.29-.27.39-.29a3.55,3.55,0,0,0,.38-.21l.16-.2-.07-.14L10,15.64l-.25-.07-.5.07-.3.2-.18.37-.09.29-.26.39Z"/><path class="cls-4" d="M13.18,16.07l1-.46.64-.36.41-.23.23.18-.39.39-.77.46-.21.06L15,16a6.14,6.14,0,0,0,.68-.53l.5-.27h.35l-.12.2-1,.62-.25.21-.71.2-.66.12-.28.16-.66.31h-.27Z"/><path class="cls-4" d="M6.26,18.26,7,17.92a.91.91,0,0,1,.23-.07h.59a4.08,4.08,0,0,1,.52-.14c.1,0,.46-.29.55-.32s.55-.41.73-.48.5-.25.64-.29.48-.12.48-.12l-.34.5-.87.46-.55.3-1,.41-.13,0c-.12.05-1,.3-1,.3H6.76l-.59-.27Z"/><path class="cls-4" d="M2.27,21.5a3.67,3.67,0,0,1,.5-.32c.09,0,.3-.39.3-.39a3.17,3.17,0,0,1,.5-.43c.07,0,.55-.09.55-.09h.29l.85-.07.2.05-.25.41-.93.5-.1.39-.63,0-.46,0L3,21.8l-.34.32-.46,0-.07,0Z"/><path class="cls-4" d="M3,24.4,3.8,24,4,23.62,4,23.24l.05-.62.55-.37.55-.16.61-.2,1-.34L7.22,21l.53-.8s.2-.25.27-.25.09-.16.14,0-.23.67-.23.67L7.72,21l-.34.54-.09.23-.89.55s.16-.09-.32.05l-.57.16-.18.13s0,0,0,.07a.77.77,0,0,1-.09.23l.25.23.11.23-.13.43-.14.46-.52,0-1,.46-.36,0H2.88Z"/><path class="cls-4" d="M9.07,21.46l.3-.62,1.05-.37a3.64,3.64,0,0,1,.52-.25c.07,0,.64-.13.64-.13l1-.39c.07,0,.59-.18.73-.21a8.19,8.19,0,0,0,1-.55l.48-.61.21-.46.25-.18-.05.68-.45.73-1,.67-.77.32-.35.13-.63.57-.16,0-.62.32h-.25l.11-.25s-.23-.1-.34-.05l-.11.05.32.43.11,0s0,.37-.09.41l-.09.05-.57.41-.35,0H9.59l-.75,0s-.16-.07,0-.07a.87.87,0,0,0,.27-.07l.5-.09.25,0,.34-.14.14-.09.14-.14,0-.11v-.21l-.18-.14-.09-.06H10l-.1-.05-.38.05-.1.2-.06,0Z"/><path class="cls-4" d="M15.69,19.08l.55-.25a1.21,1.21,0,0,1,.2-.14c.07,0,.5-.22.5-.22l-.13.63a.43.43,0,0,0-.23,0,1.76,1.76,0,0,1-.25,0l0,.21.26.27a1.56,1.56,0,0,1-.07.14c0,.07-.12.43-.28.43h-.38l-.44.12-.59.16-.3.41v.38l.05.07.07.12h.13c.07,0,.07,0,.21-.07s.29-.07.32-.14,0-.32.16-.32.59-.13.52.05-.36.34-.36.34l-.09.05a.15.15,0,0,1-.12,0,1.64,1.64,0,0,0-.36.12l-.46.22-.23.05h-.09l-.14-.11a.81.81,0,0,1,0-.19.69.69,0,0,1,0-.18l0-.21s0,0-.05-.06a.72.72,0,0,1-.14-.23v-.09s0-.16,0-.16a1.19,1.19,0,0,0,.27-.09s.09-.28.18-.28a3.71,3.71,0,0,0,.41-.07H15l.23-.07.12-.06.11-.16h.14l.11-.07a.56.56,0,0,1,.23.09c.16.09.16-.09.16-.09l-.05-.46,0-.11L15.64,19Z"/><path class="cls-4" d="M21.92,26l.18-.11.41-.25.3-.32a2,2,0,0,1,.14-.16c.07-.07.29-.34.29-.34l.09-.48.32.2.21.39.07.09a.71.71,0,0,0,.18.16l.09,0h.07l.09-.19,0-.07-.07-.13-.14-.12-.09-.13.14-.19.09,0,.16.32.13.16.07.09v.43l0,.07-.19.12s0,0-.13,0a2.26,2.26,0,0,1-.28,0,.34.34,0,0,1-.16.07c-.07,0,0,.09-.29.12a2.71,2.71,0,0,0-.64.16l-.12,0h-.07l-.18.18-.07,0,.09.09a.19.19,0,0,0,.26,0c.16-.12.5-.34.5-.34h.29a.65.65,0,0,0,.16,0h.1c.18,0-.39,0,.18,0s.59-.09.59-.09l.07,0-.09.18-.07,0-.46.07-.11,0s0,0-.18.05l-.25,0-.26.05-.22.09-.12.07a.61.61,0,0,1-.16.09.82.82,0,0,1-.18,0l-.07,0-.11-.05-.21-.09-.11-.05L22,26.23l-.12-.05Z"/><path class="cls-4" d="M23.24,26.91l.07-.16.21,0,.27.13.09.1L24,27h.14a.3.3,0,0,0,.25-.1,4.53,4.53,0,0,1,.52-.22c.07,0,.07,0,.14,0s.18-.39.18-.39l.05-.22s0,0,.07-.07a1.62,1.62,0,0,0,.16-.14l0-.27,0-.16h.18l-.07-.05-.18-.11-.12-.05,0-.09h.11l.14,0,.16,0,.07,0,0-.21s0-.18-.09-.09-.07.14-.16.18a1.06,1.06,0,0,1-.3.07l-.06,0s-.23,0-.05-.07.18-.18.25-.2l.34-.11.05-.07.11-.23.07-.07.14-.3s0,0,.07,0a.39.39,0,0,1,.13.21c.12.11.12.09.19.16a.3.3,0,0,0,.13.09s.07.11.12-.07A1.26,1.26,0,0,1,27,24l.07-.07,0-.09,0-.19v-.41s0,0-.18,0a.76.76,0,0,0-.3-.07l-.5-.05v-.2l0-.07,0-.27-.07,0-.18.37c0,.13-.53,0-.53.11v.07l.09-.23.12-.14.2-.22.12-.19.23-.13.29.06.28.1.77.13.32.14.23.27.08.09,0,.3a.12.12,0,0,1-.1.07l-.27,0-.09-.19L27.51,23l-.13-.08-.05-.08a1,1,0,0,0,0,.2v.12l0,.2a.68.68,0,0,0,.12.23s0,0,0,.14l0,.11v.21c0,.34-.25.34-.27.41s-.14,0-.14,0l.19.12.16,0a.5.5,0,0,1,.06-.25l.19-.2.13-.21.16,0,.19.27v.07s.13,0-.07,0a.91.91,0,0,0-.39.25l0,.07.07.32.09.07s.25.09.25,0,.07-.21.14-.21.09-.11.18-.09.09.21.09.21l-.18.18-.14,0-.32,0a1.92,1.92,0,0,0-.34-.05c-.14,0,0,.07-.14,0l-.25-.11-.3.14-.16.2,0,.09.36.21.12.32s-.1.18-.19.18,0,0-.09,0,.66-.05-.18-.05h-.91c.06.07.22.3.22.3a.16.16,0,0,1,.16.07c.07.09,0,.09.07.09a.31.31,0,0,1,.18.09s.05,0-.06.07-.12,0-.39.07l-.37.09.09.23.12.09c-.05.3-.14.3-.14.3s0,.09-.11,0a.53.53,0,0,1-.19-.28l-.48.08h-.06s.11,0-.14.05l-.25,0h-.23l-.14,0Z"/><path class="cls-4" d="M34.43,24.56l.34-.25.21-.78.06-.29s0-.1.16-.46a2.07,2.07,0,0,0,.21-.5l.16.27-.09.21-.34.91-.12.07Z"/><path class="cls-4" d="M36.07,23l-.16-.75-.16-.62,0-.16.16.37s0,0,.07.06a.84.84,0,0,0,.16.07l.32-.09.18-.13.07-.21,0-.09-.41-.05h-.16l.18-.57.32,0,.23,0,.09.32-.2.07-.19.07.32.61,0,.42.09.32,0,.11s0,.14-.21,0a1.16,1.16,0,0,1-.23-.25l-.27-.16-.09,0Z"/><path class="cls-4" d="M37.37,24.47c-.07,0-.16-.21-.16-.21s0-.16,0-.25a1.8,1.8,0,0,1,0-.39v-.16h.21l.14.14.07.12.18.2.07.25.11.14,0,.14-.55.22Z"/><polygon class="cls-4" points="40.77 31.89 40.64 31.57 40.64 31.2 40.75 31.18 40.91 31.13 41.09 30.98 41.3 31.09 41.27 31.91 40.77 31.89"/><path class="cls-5" d="M40.52,32h-1s-.2-.07-.14-.09.46-.32.53-.32.23-.16.23-.16l.09-.11,0-.09.14-.44.18,0h0a.08.08,0,0,1,0,.11l0,.07-.36.5.2.25Z"/><path class="cls-5" d="M37.6,32.39l.43-.14.23-.11.07,0,.05-.21L38,31.8a1.43,1.43,0,0,0-.28-.05,5.28,5.28,0,0,1-.66-.05,1,1,0,0,1-.2-.06l-.37-.1h-.27l0,.16.25.07,1,.55Z"/><path class="cls-4" d="M39.81,33.87l0,0-.55-.4-.32-.16-.27-.14L38,32.91l-.53-.36L37,32.16l-1-.36-.48-.35-.64-.27-.43-.41-.66,0-.66-.16-.51-.07H32.1l-.55.12-1.25-.05-.41-.27-.53,0-.55-.11-.7-.14L27.76,30l-.18-.12,0,.18.35.28.13.41.14.14a.33.33,0,0,1,.11.09,2.22,2.22,0,0,0,.23.18l-.09.11h-.25l-.16-.11a1.4,1.4,0,0,0-.16-.23l-.16-.18a.1.1,0,0,0-.09-.07l-.37,0-.11.12s0,0,0,.25v.27l-.09.41.32.12c.11,0,0,0,.25,0a.71.71,0,0,0,.29,0s.09,0,.12,0l.11-.29.05-.19.7-.06.1,0a1,1,0,0,1,.2.16l.05.14-.12.11s0-.09-.09,0,0,.05-.11.12a1.39,1.39,0,0,0-.28.16c-.07.07.07-.12-.07.07a1.26,1.26,0,0,1-.47.38l-.12,0-.18.14a2.48,2.48,0,0,1-.41.45s-.07.18-.09.25a.3.3,0,0,0,0,.16v.07h0l-.29.16-.14.12-.52,0-.23-.23v-.13c0-.12.07-.53.07-.53s0,0,.16,0a1.92,1.92,0,0,1,.29-.07l.25,0h.23s.16,0,0-.16L27,32.48l-.07,0-.34-.09L26.3,32l-.07-.18,0-.3c.09-.09.11-.25.23-.38a2.8,2.8,0,0,0,.25-.48l.09-.09s0-.12.14-.14.16-.14.22-.14.21-.16.21-.16l.11-.11v-.21l-.11-.13-.34.06-.76-.06-.11,0,.36.48.05.32-.05.32-.05.12-.22.31-.07.05-.2.25-.05.37a1.11,1.11,0,0,0,.16.16l.07,0,.25.21.21.22,0,.1-.11,0-.25.14-.16.06a.73.73,0,0,0-.09.25v.1a3.33,3.33,0,0,0-.1.38v.07l-.13,0-.28,0h-.07s-.09-.2,0-.3a.74.74,0,0,0,.14-.16V33s0-.16-.11-.2a2.42,2.42,0,0,1-.25-.28l0-.18,0-.18L25,31.89v-.23l.07-.14.13,0h.28l.09,0,0-.09-.25-.05h-.22l-.28.12-.14.09s0,0-.06.09,0,0-.1.11a1.19,1.19,0,0,1-.29.32l.32.25v.73l0,.14-.2.11-.27,0-.16-.05s.06,0-.1-.07a2.67,2.67,0,0,1-.32-.22l-.25,0h-.66l-.07,0a.79.79,0,0,1,.16-.3,2.49,2.49,0,0,0,.21-.27l0-.07,0-.12a2.47,2.47,0,0,0,0-.34,2.64,2.64,0,0,1,0-.57c.05-.07.21-.46.21-.46l.25-.2,0,.16.05.3a4.27,4.27,0,0,1-.3.47l0,.12,0,.09.09.16v.14l0,.11.06.07.12.18.16,0,.09-.1a1.79,1.79,0,0,0,0-.29c0-.18,0-.39,0-.39s-.14,0-.07-.11l.12-.19.2.07.3,0,.13,0,.37,0,.34-.12.69.05,0-.16L25.59,31,25,31l-.54.12-.23-.37,0-.27.05-.19.25,0-.18-.18v-.32l.18-.25-.32.13s0,.21,0,.25-.64.25-.64.25l-.35.07-.34,0a.59.59,0,0,1-.2,0h-.07a1.34,1.34,0,0,1-.5-.06,1.57,1.57,0,0,1-.37-.21s0,0-.07,0a1.82,1.82,0,0,1-.27-.23l-.32.09-.82.18s.59-.23,0,.12a7.64,7.64,0,0,1-.71.38l-.3.21-.09.09s-.18,0-.23.11l0,.1,0,.16s.53.2.64.22.21-.07.35-.13A.33.33,0,0,0,20,31l0-.09v-.3s.07-.12.14-.12,0-.06.15-.09.19-.16.26-.16l.13,0,.19-.07a.3.3,0,0,1,0,.23s0-.07,0,.09a.7.7,0,0,1-.1.32l-.06.12-.23.22-.34.25-.1.05-.25.27.32.53s0-.07.16-.21.18-.16.25-.2,0,.07.07-.05a1.29,1.29,0,0,0,.16-.36l.12-.23a2,2,0,0,1,.13-.3c.07-.11.07-.34.14-.41l.2-.18a.12.12,0,0,1,.16.07.52.52,0,0,1,.05.25v.46a.61.61,0,0,1-.05.25s-.09-.12-.13.06a.69.69,0,0,1-.21.32s-.27.12-.27.21a1.46,1.46,0,0,0,.09.32l.16.36.41-.75,0-.27s0,0,0-.12-.05-.18.07-.27a1.39,1.39,0,0,0,.2-.21l.09-.11s.07-.11.14-.11h.07s.11-.1.3,0l.18.11.16.28a3.34,3.34,0,0,1,0,.41c0,.07-.1.07-.1.16s-.22.09-.22.09a2.7,2.7,0,0,0-.05.39c0,.13-.25,0-.25.11v.34l0,.32h-.11l-.37,0-.61-.14-.44-.25-.2-.28-.37-.25-.75-.25-1.12-.11-.66-.07s-.32-.3-.21-.37.32-.45.44-.45a3.23,3.23,0,0,1,.64,0c.06.05.2-.16.2-.16l-.36-.25-.41,0-.64.43-.57.66a1.48,1.48,0,0,1-.35-.16,1.15,1.15,0,0,1-.5-.09,4.25,4.25,0,0,1-.62-.22l-.54.2-.09.18-.62,0-.5-.14.16-.23.39-.14.15-.09,0-.07-.36-.06-.57.06-1.33-.22-.57-.3-.25-.09-.62.29-1.05.67-.57.11-1.55-.11h-1l-.82,0-1.12.28,1.4,4,3.08,5.48s12.87,4.5,13,4.5S41.3,42.11,41.3,42.11l.16-6.48Z"/></g><path class="cls-6" d="M47.73,3.89H60l0,10h-.59q-.29-5.35-1.64-7.24a2.89,2.89,0,0,0-2.28-1.13V31.58a11.2,11.2,0,0,0,.38,3.63,1.62,1.62,0,0,0,1.64.89v1.26H50.25V36.1a1.53,1.53,0,0,0,1.57-.89,10.61,10.61,0,0,0,.4-3.63V5.51a3,3,0,0,0-2.28,1.13q-1.45,1.93-1.64,7.24h-.59l0-10Z"/><path class="cls-6" d="M61.17,36.3a1.31,1.31,0,0,0,1-.47,4.41,4.41,0,0,0,.48-2.46V13.21a4.72,4.72,0,0,0-.43-2.41,1.74,1.74,0,0,0-1-.55V9.2H67v1.05a1.52,1.52,0,0,0-1,.49,4.46,4.46,0,0,0-.49,2.47v8.62h4.07V13.21A4.48,4.48,0,0,0,69,10.76,1.63,1.63,0,0,0,68,10.25V9.2h5.81v1.05a1.59,1.59,0,0,0-1,.53,4.42,4.42,0,0,0-.46,2.43V33.37a4.25,4.25,0,0,0,.51,2.48,1.28,1.28,0,0,0,1,.45v1.06H68V36.3a1.35,1.35,0,0,0,1-.49,4.46,4.46,0,0,0,.47-2.44v-9.6H65.42v9.6a4.27,4.27,0,0,0,.52,2.5,1.38,1.38,0,0,0,1,.43v1.06H61.17V36.3Z"/><path class="cls-6" d="M75.37,37.36V36.3a1.35,1.35,0,0,0,1-.49,4.37,4.37,0,0,0,.47-2.44V13.21a4.28,4.28,0,0,0-.49-2.47,1.49,1.49,0,0,0-1-.49V9.2H85.2v8.4h-.42a15.9,15.9,0,0,0-1.1-5.51,2.91,2.91,0,0,0-2.84-1.49c-.52,0-.85.14-1,.41a3.76,3.76,0,0,0-.21,1.56v9.65a1.88,1.88,0,0,0,2-1.28,20,20,0,0,0,.79-4.89h.43V30.14H82.4a17.65,17.65,0,0,0-.75-5,2,2,0,0,0-2-1.47v10.1a4.13,4.13,0,0,0,.28,1.81,1.24,1.24,0,0,0,1.15.47,3.11,3.11,0,0,0,2.67-1.55,17.3,17.3,0,0,0,1.83-5.8H86l-.69,8.67Z"/><path class="cls-7" d="M93.82,36.1A1.57,1.57,0,0,0,95,35.57a5,5,0,0,0,.61-3v-24A5.16,5.16,0,0,0,95,5.73a1.74,1.74,0,0,0-1.22-.59V3.89h6.28a4.49,4.49,0,0,1,3,1c1.5,1.28,2.26,3.6,2.26,7a10.79,10.79,0,0,1-.93,4.88,4.63,4.63,0,0,1-2,2.28v.46a4.83,4.83,0,0,1,2,1.79,12.41,12.41,0,0,1,1.62,6.86,12.7,12.7,0,0,1-1.56,6.68,4.68,4.68,0,0,1-4.14,2.54H93.82V36.1Zm7.55-18.69a15.09,15.09,0,0,0,.65-5.33,22.16,22.16,0,0,0-.43-4.76c-.28-1.29-.81-1.93-1.61-1.94a.9.9,0,0,0-.89.54,4.9,4.9,0,0,0-.24,1.86V18.91a2.48,2.48,0,0,0,2.52-1.5ZM99,34.7c.16.71.48,1.06.95,1.06,1,0,1.62-.63,2-1.91a19.56,19.56,0,0,0,.58-5.44c0-3.51-.42-5.85-1.28-7a2.62,2.62,0,0,0-2.42-1V32.79A8.56,8.56,0,0,0,99,34.7Z"/><path class="cls-6" d="M106.71,37.36V36.3a1.33,1.33,0,0,0,1-.49,4.46,4.46,0,0,0,.47-2.44V13.21a4.28,4.28,0,0,0-.49-2.47,1.49,1.49,0,0,0-1-.49V9.2h9.83v8.4h-.42a15.9,15.9,0,0,0-1.1-5.51,2.9,2.9,0,0,0-2.84-1.49c-.52,0-.85.14-1,.41a3.76,3.76,0,0,0-.21,1.56v9.65a1.88,1.88,0,0,0,2-1.28,20,20,0,0,0,.79-4.89h.43V30.14h-.43a17.65,17.65,0,0,0-.75-5,2,2,0,0,0-2-1.47v10.1a4.13,4.13,0,0,0,.28,1.81,1.24,1.24,0,0,0,1.15.47,3.11,3.11,0,0,0,2.67-1.55,17.07,17.07,0,0,0,1.83-5.8h.47l-.69,8.67Z"/><path class="cls-6" d="M118.45,36.3a1.37,1.37,0,0,0,1-.45,4.35,4.35,0,0,0,.5-2.48V13.21a4.38,4.38,0,0,0-.48-2.47,1.5,1.5,0,0,0-1-.49V9.2h6v1.05A1.62,1.62,0,0,0,123,11a8.34,8.34,0,0,0-.34,3.11V33.76a3.86,3.86,0,0,0,.29,1.83,1.3,1.3,0,0,0,1.16.45,3,3,0,0,0,2.58-1.65c.7-1.11,1.31-3.27,1.81-6.47h.5l-.69,9.44h-9.89V36.3Z"/><path class="cls-6" d="M130.17,36.3a1.33,1.33,0,0,0,1-.45,4.25,4.25,0,0,0,.51-2.48V13.21a4.38,4.38,0,0,0-.48-2.47,1.52,1.52,0,0,0-1-.49V9.2h6v1.05a1.64,1.64,0,0,0-1.4.72,8.57,8.57,0,0,0-.34,3.11V33.76a3.7,3.7,0,0,0,.3,1.83,1.28,1.28,0,0,0,1.15.45,3,3,0,0,0,2.59-1.65q1-1.66,1.81-6.47h.5l-.7,9.44h-9.88V36.3Z"/><path class="cls-6" d="M141.79,36.3a1.35,1.35,0,0,0,1-.43,4.27,4.27,0,0,0,.52-2.5V13.21a4.32,4.32,0,0,0-.5-2.49,1.53,1.53,0,0,0-1.06-.47V9.2h6v1.05a1.64,1.64,0,0,0-1.11.45,4.38,4.38,0,0,0-.5,2.51V33.37a4.67,4.67,0,0,0,.4,2.34,1.35,1.35,0,0,0,1.21.59v1.06h-6V36.3Z"/><path class="cls-6" d="M149.41,36.3a1.27,1.27,0,0,0,1.23-.87,8.44,8.44,0,0,0,.27-2.45V13.24c-.52-1.42-.84-2.25-1-2.5a.86.86,0,0,0-.5-.49V9.2h3.62l5.87,17.56H159V14.36a10.12,10.12,0,0,0-.31-3,1.61,1.61,0,0,0-1.27-1.1V9.2h3.67v1.05a1.94,1.94,0,0,0-1.07.88,6.91,6.91,0,0,0-.27,2.46V38.13h-.47l-7.51-22.28h-.12V32.21a11.28,11.28,0,0,0,.22,2.71c.23.85.69,1.32,1.4,1.38v1.06h-3.87V36.3Z"/><path class="cls-6" d="M163.34,13c1.14-2.91,2.58-4.37,4.35-4.37a3.15,3.15,0,0,1,2.11,1c.69.64,1.13,1,1.3,1s.33-.16.44-.47a6.16,6.16,0,0,0,.28-1.42h.47v9.74h-.43a36.88,36.88,0,0,0-1.26-5q-1.2-3.37-2.71-3.38c-1.1,0-1.91,1.17-2.41,3.5a48.84,48.84,0,0,0-.76,9.85,55.23,55.23,0,0,0,.7,9.3q.71,4.06,2.72,4.07a1.45,1.45,0,0,0,1.47-1.12,6.1,6.1,0,0,0,.22-1.91v-4.4a4.29,4.29,0,0,0-.48-2.48,1.73,1.73,0,0,0-1.25-.41V25.41H174v1.06a1.27,1.27,0,0,0-1.17.88,9.8,9.8,0,0,0-.29,2.93v5.31a6.37,6.37,0,0,1-1.83,1.71,4.94,4.94,0,0,1-2.83.85c-1.9,0-3.41-1.45-4.54-4.37a28.57,28.57,0,0,1-1.59-10.26A29.37,29.37,0,0,1,163.34,13Z"/><path class="cls-6" d="M174.37,36.3a1.31,1.31,0,0,0,1-.47,4.41,4.41,0,0,0,.48-2.46V13.21a4.72,4.72,0,0,0-.43-2.41,1.74,1.74,0,0,0-1-.55V9.2h5.78v1.05a1.52,1.52,0,0,0-1,.49,4.46,4.46,0,0,0-.49,2.47v8.62h4.07V13.21a4.48,4.48,0,0,0-.46-2.45,1.63,1.63,0,0,0-1.06-.51V9.2H187v1.05a1.59,1.59,0,0,0-1,.53,4.42,4.42,0,0,0-.46,2.43V33.37a4.25,4.25,0,0,0,.51,2.48,1.28,1.28,0,0,0,1,.45v1.06h-5.81V36.3a1.31,1.31,0,0,0,1-.49,4.36,4.36,0,0,0,.48-2.44v-9.6h-4.07v9.6a4.27,4.27,0,0,0,.52,2.5,1.38,1.38,0,0,0,1,.43v1.06h-5.78V36.3Z"/><path class="cls-7" d="M194.84,27.53l-1.63-9.65h-.15l-1.54,9.65Zm-6.4,8.77c.41-.06.74-.52,1-1.36.16-.53.39-1.7.69-3.5l3.79-22.81h.48l3.81,21.89c.43,2.46.74,4.05,1,4.76s.51,1,.9,1v1.06h-5.53V36.3a1.76,1.76,0,0,0,1.09-.35,2.08,2.08,0,0,0,.27-1.34,14.29,14.29,0,0,0-.13-1.48c-.06-.4-.13-.87-.23-1.43l-.43-2.52h-3.84c-.25,1.66-.41,2.73-.48,3.23a19,19,0,0,0-.22,2.35,1.59,1.59,0,0,0,.49,1.3,1.46,1.46,0,0,0,.87.24v1.06h-3.48V36.3Z"/><path class="cls-6" d="M201.51,36.3a1.24,1.24,0,0,0,1.27-.83,8.19,8.19,0,0,0,.29-2.49V13.21a4.86,4.86,0,0,0-.33-2.24,1.68,1.68,0,0,0-1.19-.72V9.2h4.3l3.36,19.29h.14L212.7,9.2H217v1.05a1.56,1.56,0,0,0-1.19.8,8.6,8.6,0,0,0-.31,3V32.5a9.09,9.09,0,0,0,.31,3,1.33,1.33,0,0,0,1.19.79v1.06h-5.67V36.3a1.44,1.44,0,0,0,1.14-.61,5,5,0,0,0,.38-2.46V12.86h-.12l-4.19,24.5h-.45l-4.23-24h-.07V32.21a10.51,10.51,0,0,0,.31,3,1.48,1.48,0,0,0,1.4,1.06v1.06h-4V36.3Z"/><path class="cls-6" d="M225.09,36.1a1.6,1.6,0,0,0,1.15-.55,5.42,5.42,0,0,0,.56-2.93v-24a5.51,5.51,0,0,0-.51-2.85,2,2,0,0,0-1.2-.66V3.89H232V5.14a1.82,1.82,0,0,0-1.24.59,5.25,5.25,0,0,0-.57,2.92V18.91H235V8.65a5.38,5.38,0,0,0-.54-2.9,1.88,1.88,0,0,0-1.26-.61V3.89h6.9V5.14a1.88,1.88,0,0,0-1.21.63,5.21,5.21,0,0,0-.55,2.88v24a5,5,0,0,0,.61,3,1.52,1.52,0,0,0,1.15.53v1.26h-6.9V36.1a1.61,1.61,0,0,0,1.24-.58,5.3,5.3,0,0,0,.56-2.9V21.2h-4.83V32.62a5,5,0,0,0,.61,3,1.68,1.68,0,0,0,1.2.51v1.26h-6.86V36.1Z"/><path class="cls-6" d="M241.72,37.36V36.3a1.35,1.35,0,0,0,1.05-.49,4.46,4.46,0,0,0,.47-2.44V13.21a4.28,4.28,0,0,0-.49-2.47,1.5,1.5,0,0,0-1-.49V9.2h9.84v8.4h-.42A15.61,15.61,0,0,0,250,12.09a2.88,2.88,0,0,0-2.83-1.49c-.52,0-.86.14-1,.41a3.76,3.76,0,0,0-.21,1.56v9.65a1.89,1.89,0,0,0,2-1.28,20.56,20.56,0,0,0,.79-4.89h.43V30.14h-.43a18.42,18.42,0,0,0-.75-5,2,2,0,0,0-2-1.47v10.1a4,4,0,0,0,.28,1.81,1.23,1.23,0,0,0,1.15.47,3.1,3.1,0,0,0,2.66-1.55,17.25,17.25,0,0,0,1.84-5.8h.47l-.69,8.67Z"/><path class="cls-7" d="M253.54,36.3a1.36,1.36,0,0,0,1.19-.79,9,9,0,0,0,.31-3V14.08a8.31,8.31,0,0,0-.37-3.15,1.54,1.54,0,0,0-1.13-.68V9.2H259a4.19,4.19,0,0,1,2.76.87q2.06,1.77,2.05,6.37a11.65,11.65,0,0,1-1,5.35,4.05,4.05,0,0,1-1.66,1.87l3.44,11.87a1.73,1.73,0,0,0,.29.65.7.7,0,0,0,.4.18v1h-3.5l-3.54-13h-.45V32.5a9.65,9.65,0,0,0,.3,3,1.3,1.3,0,0,0,1.2.83v1.06h-5.77V36.3Zm6.66-14.45c.49-.73.73-2.41.73-5.05a20.22,20.22,0,0,0-.28-3.82c-.31-1.59-.89-2.38-1.73-2.38a.9.9,0,0,0-.9.43,3.17,3.17,0,0,0-.21,1.36V23a2.77,2.77,0,0,0,2.39-1.14Z"/><path class="cls-7" d="M273.16,27.53l-1.63-9.65h-.15l-1.54,9.65Zm-6.4,8.77c.41-.06.74-.52,1-1.36.16-.53.39-1.7.69-3.5l3.79-22.81h.48l3.81,21.89c.43,2.46.74,4.05,1,4.76s.51,1,.9,1v1.06h-5.53V36.3a1.76,1.76,0,0,0,1.09-.35,2.08,2.08,0,0,0,.27-1.34,14.29,14.29,0,0,0-.13-1.48c-.06-.4-.13-.87-.23-1.43l-.43-2.52h-3.84c-.25,1.66-.41,2.73-.48,3.23a19,19,0,0,0-.22,2.35,1.59,1.59,0,0,0,.49,1.3,1.46,1.46,0,0,0,.87.24v1.06h-3.48V36.3Z"/><path class="cls-6" d="M279.83,36.3a1.33,1.33,0,0,0,1-.45,4.25,4.25,0,0,0,.51-2.48V13.21a4.38,4.38,0,0,0-.48-2.47,1.52,1.52,0,0,0-1-.49V9.2h6v1.05a1.61,1.61,0,0,0-1.39.72,8.27,8.27,0,0,0-.35,3.11V33.76a3.7,3.7,0,0,0,.3,1.83,1.28,1.28,0,0,0,1.15.45,3,3,0,0,0,2.59-1.65q1-1.66,1.81-6.47h.5l-.69,9.44h-9.89V36.3Z"/><path class="cls-7" d="M291.37,36.3a1.42,1.42,0,0,0,.93-.45,3.85,3.85,0,0,0,.5-2.29V13a3.85,3.85,0,0,0-.48-2.24,1.57,1.57,0,0,0-.95-.51V9.2h5.22c2.11,0,3.71,1.37,4.82,4.11a27.54,27.54,0,0,1,1.51,10,26.66,26.66,0,0,1-1.52,9.58q-1.71,4.43-4.63,4.42h-5.4V36.3Zm4.38-.93a.72.72,0,0,0,.73.57c1,0,1.85-.87,2.5-2.61s1-5.1,1-10a47.11,47.11,0,0,0-.53-7.59c-.56-3.41-1.52-5.11-2.86-5.11a.84.84,0,0,0-.87.69,7.27,7.27,0,0,0-.13,1.73V33.51a7.61,7.61,0,0,0,.19,1.86Z"/></g></g></svg>