<?xml version="1.0" encoding="utf-8"?>
<!-- Generator: Adobe Illustrator 24.0.0, SVG Export Plug-In . SVG Version: 6.00 Build 0)  -->
<svg version="1.1" id="Layer_1" xmlns="http://www.w3.org/2000/svg" xmlns:xlink="http://www.w3.org/1999/xlink" x="0px" y="0px"
	 viewBox="0 0 741.2 195.7" style="enable-background:new 0 0 741.2 195.7;" xml:space="preserve">
<style type="text/css">
	.st0{fill:#231F20;}
	.st1{fill:#EA0029;}
</style>
<g>
	<path d="M108.7,104.3c3.9,0,6.2,2.9,6.2,8.2s-2.3,8.2-6.2,8.2c-3.9,0-6.2-2.9-6.2-8.2S104.8,104.3,108.7,104.3z M108.7,119.1
		c2.8,0,4.4-2.2,4.4-6.7c0-4.5-1.7-6.7-4.4-6.7c-2.8,0-4.4,2.2-4.4,6.7C104.3,116.9,105.9,119.1,108.7,119.1z"/>
	<path d="M118,124.6v-15.7h1.6v1.3h0c0.6-0.9,1.9-1.6,3-1.6c2,0,4.7,1.4,4.7,5.9c0,4.4-2.7,5.9-4.6,5.9c-1.1,0-2.1-0.6-3-1.3l-0.1,0
		v5.3H118z M119.6,117.6c0.9,0.9,1.9,1.6,2.9,1.6c1.9,0,3.2-1.2,3.2-4.7c0-2.9-1.3-4.5-3.2-4.5c-1,0-1.8,0.4-2.9,1.5V117.6z"/>
	<path d="M138.6,117.9c-0.7,1.3-1.8,2.7-4.4,2.7c-2.6,0-5-1.8-5-5.9c0-3.7,1.9-5.9,4.7-5.9c2.4,0,4.4,1.5,4.4,5.2v1.1h-7.4
		c0,2.5,1.5,4.3,3.4,4.3c1.4,0,2.5-0.7,3.2-1.9L138.6,117.9z M136.6,113.6c0-2.1-1-3.5-2.7-3.5c-1.9,0-3,1.4-3.1,3.5H136.6z"/>
	<path d="M142.9,108.9v1.5h0c0.9-1,2.1-1.8,3.4-1.8c1.7,0,3.3,0.9,3.3,3.3v8.3H148v-8.3c0-1.5-0.7-2-1.9-2c-1.2,0-2.6,1-3.3,1.7v8.6
		h-1.6v-11.5H142.9z"/>
	<path d="M171.8,104.5v15.9h-1.8v-7.6h-7.6v7.6h-1.8v-15.9h1.8v6.8h7.6v-6.8H171.8z"/>
	<path d="M184.5,117.9c-0.7,1.3-1.8,2.7-4.4,2.7c-2.6,0-5-1.8-5-5.9c0-3.7,1.9-5.9,4.7-5.9c2.4,0,4.4,1.5,4.4,5.2v1.1h-7.4
		c0,2.5,1.5,4.3,3.4,4.3c1.4,0,2.5-0.7,3.2-1.9L184.5,117.9z M182.5,113.6c0-2.1-1-3.5-2.7-3.5c-1.9,0-3,1.4-3.1,3.5H182.5z"/>
	<path d="M186.5,111.1c0.7-1.3,2.1-2.4,4.3-2.4c1.9,0,4,0.9,4,3.4v5.8c0,1.3,0.1,1.9,0.3,2.5h-1.6l-0.2-1.6
		c-0.8,0.9-2.1,1.8-3.8,1.8c-1.8,0-3.3-1.1-3.3-3.2c0-2.5,1.9-3.8,7-4.7v-0.6c0-1.5-1-2.1-2.4-2.1c-1.8,0-2.6,1-2.9,1.8L186.5,111.1
		z M193.1,114.2c-3.6,0.6-5.4,1.7-5.4,3.3c0,1.1,1,1.8,1.9,1.8c1.1,0,2.6-0.8,3.5-1.9V114.2z"/>
	<path d="M197.8,108.9h1.6v2.3h0c0.9-1.6,1.8-2.4,3.7-2.4v1.6c-2,0-3,1.3-3.8,3.7v6.3h-1.6V108.9z"/>
	<path d="M205.8,108.9v-3.8h1.6v3.8h2.6v1.4h-2.6v8.2c0,0.5,0.4,0.8,1.3,0.8c0.5,0,1,0,1.4-0.1v1.3c-0.3,0.1-0.9,0.2-1.9,0.2
		c-1.7,0-2.4-0.4-2.4-1.9v-8.4H204v-1.4H205.8z"/>
	<path d="M212.7,117.5c0.7,1.1,1.9,1.8,3.3,1.8c1.7,0,2.5-0.9,2.5-1.9c0-2.9-6.8-1.4-6.7-5.5c0.1-2,1.6-3.1,3.8-3.1
		c1.5,0,3.2,0.8,3.9,2l-1.1,1c-0.9-1.1-1.7-1.6-3-1.6c-1.3,0-2.1,0.7-2.1,1.7c0,2.5,6.7,1.2,6.7,5.5c0,2.2-1.9,3.3-4,3.3
		c-1.8,0-3.5-0.8-4.6-2.2L212.7,117.5z"/>
	<path d="M225.1,118v2.4h-2.2V118H225.1z"/>
	<path d="M241.4,104.3c3.9,0,6.2,2.9,6.2,8.2s-2.3,8.2-6.2,8.2s-6.2-2.9-6.2-8.2S237.5,104.3,241.4,104.3z M241.4,119.1
		c2.8,0,4.4-2.2,4.4-6.7c0-4.5-1.7-6.7-4.4-6.7c-2.8,0-4.4,2.2-4.4,6.7C237,116.9,238.7,119.1,241.4,119.1z"/>
	<path d="M250.7,124.6v-15.7h1.6v1.3h0c0.6-0.9,1.9-1.6,3-1.6c2,0,4.7,1.4,4.7,5.9c0,4.4-2.7,5.9-4.6,5.9c-1.1,0-2.1-0.6-3-1.3
		l-0.1,0v5.3H250.7z M252.3,117.6c0.9,0.9,1.9,1.6,2.9,1.6c1.9,0,3.2-1.2,3.2-4.7c0-2.9-1.3-4.5-3.2-4.5c-1,0-1.8,0.4-2.9,1.5V117.6
		z"/>
	<path d="M271.3,117.9c-0.7,1.3-1.8,2.7-4.4,2.7c-2.6,0-5-1.8-5-5.9c0-3.7,1.9-5.9,4.7-5.9c2.4,0,4.4,1.5,4.4,5.2v1.1h-7.4
		c0,2.5,1.5,4.3,3.4,4.3c1.4,0,2.5-0.7,3.2-1.9L271.3,117.9z M269.4,113.6c0-2.1-1-3.5-2.7-3.5c-1.9,0-3,1.4-3.1,3.5H269.4z"/>
	<path d="M275.6,108.9v1.5h0c0.9-1,2.1-1.8,3.4-1.8c1.7,0,3.3,0.9,3.3,3.3v8.3h-1.6v-8.3c0-1.5-0.7-2-1.9-2c-1.2,0-2.6,1-3.3,1.7
		v8.6H274v-11.5H275.6z"/>
	<path d="M305.4,120.4v-14.5h-0.1l-4.4,14.5h-1.4l-4.5-14.5H295v14.5h-1.6v-15.9h2.7l4.1,12.9h0l4-12.9h2.8v15.9H305.4z"/>
	<path d="M313.2,104.3v1.9h-1.6v-1.9H313.2z M311.7,108.9h1.6v11.5h-1.6V108.9z"/>
	<path d="M319.1,108.9v1.5h0c0.9-1,2.1-1.8,3.4-1.8c1.7,0,3.3,0.9,3.3,3.3v8.3h-1.6v-8.3c0-1.5-0.7-2-1.9-2c-1.2,0-2.6,1-3.3,1.7
		v8.6h-1.6v-11.5H319.1z"/>
	<path d="M338.1,104.5v13.4c0,0.8,0,1.7,0.1,2.5h-1.5l-0.2-1.1c-0.5,0.7-1.7,1.3-3,1.3c-2,0-4.7-1.4-4.7-5.9c0-4.4,2.7-5.9,4.6-5.9
		c1.1,0,2.1,0.6,3,1.3l0.1,0v-5.6H338.1z M336.5,111.7c-0.9-0.9-1.9-1.6-2.9-1.6c-1.9,0-3.2,1.2-3.2,4.7c0,2.9,1.3,4.5,3.2,4.5
		c1,0,1.8-0.4,2.9-1.5V111.7z"/>
	<path d="M341.8,117.5c0.7,1.1,1.9,1.8,3.3,1.8c1.7,0,2.5-0.9,2.5-1.9c0-2.9-6.8-1.4-6.7-5.5c0.1-2,1.6-3.1,3.8-3.1
		c1.5,0,3.1,0.8,3.9,2l-1.1,1c-0.9-1.1-1.7-1.6-3-1.6c-1.3,0-2.1,0.7-2.1,1.7c0,2.5,6.7,1.2,6.7,5.5c0,2.2-1.9,3.3-4,3.3
		c-1.8,0-3.5-0.8-4.6-2.2L341.8,117.5z"/>
	<path d="M354.2,118v2.4h-2.2V118H354.2z"/>
	<path d="M370.6,104.3c3.9,0,6.2,2.9,6.2,8.2s-2.3,8.2-6.2,8.2c-3.9,0-6.2-2.9-6.2-8.2S366.7,104.3,370.6,104.3z M370.6,119.1
		c2.8,0,4.4-2.2,4.4-6.7c0-4.5-1.7-6.7-4.4-6.7c-2.8,0-4.4,2.2-4.4,6.7C366.1,116.9,367.8,119.1,370.6,119.1z"/>
	<path d="M379.9,124.6v-15.7h1.6v1.3h0c0.6-0.9,1.9-1.6,3-1.6c2,0,4.7,1.4,4.7,5.9c0,4.4-2.7,5.9-4.6,5.9c-1.1,0-2.1-0.6-3-1.3
		l-0.1,0v5.3H379.9z M381.4,117.6c0.9,0.9,1.9,1.6,2.9,1.6c1.9,0,3.2-1.2,3.2-4.7c0-2.9-1.3-4.5-3.2-4.5c-1,0-1.8,0.4-2.9,1.5V117.6
		z"/>
	<path d="M400.4,117.9c-0.7,1.3-1.8,2.7-4.4,2.7c-2.6,0-5-1.8-5-5.9c0-3.7,1.9-5.9,4.7-5.9c2.4,0,4.4,1.5,4.4,5.2v1.1h-7.4
		c0,2.5,1.5,4.3,3.4,4.3c1.4,0,2.5-0.7,3.2-1.9L400.4,117.9z M398.5,113.6c0-2.1-1-3.5-2.7-3.5c-1.9,0-3,1.4-3.1,3.5H398.5z"/>
	<path d="M404.7,108.9v1.5h0c0.9-1,2.1-1.8,3.4-1.8c1.7,0,3.3,0.9,3.3,3.3v8.3h-1.6v-8.3c0-1.5-0.7-2-1.9-2c-1.2,0-2.6,1-3.3,1.7
		v8.6h-1.6v-11.5H404.7z"/>
	<path d="M422.3,104.5h4.3c4.3,0,7.2,2.7,7.2,8c0,4.7-2.5,8-7.3,8h-4.2V104.5z M424.1,118.9h2.4c3.7,0,5.6-2.2,5.6-6.5
		c0-4.6-2.2-6.5-5.5-6.5h-2.5V118.9z"/>
	<path d="M440.3,120.6c-3.1,0-4.7-2.6-4.7-5.9s1.6-5.9,4.7-5.9c3.1,0,4.7,2.6,4.7,5.9S443.5,120.6,440.3,120.6z M440.3,110.1
		c-1.9,0-3.1,1.6-3.1,4.6s1.2,4.6,3.1,4.6c1.9,0,3.1-1.6,3.1-4.6S442.2,110.1,440.3,110.1z"/>
	<path d="M451.4,120.6c-3.1,0-4.7-2.6-4.7-5.9s1.6-5.9,4.7-5.9c3.1,0,4.7,2.6,4.7,5.9S454.5,120.6,451.4,120.6z M451.4,110.1
		c-1.9,0-3.1,1.6-3.1,4.6s1.2,4.6,3.1,4.6c1.9,0,3.1-1.6,3.1-4.6S453.3,110.1,451.4,110.1z"/>
	<path d="M458.4,108.9h1.6v2.3h0c0.9-1.6,1.8-2.4,3.7-2.4v1.6c-2,0-3,1.3-3.8,3.7v6.3h-1.6V108.9z"/>
	<path d="M466,117.5c0.7,1.1,1.9,1.8,3.3,1.8c1.7,0,2.5-0.9,2.5-1.9c0-2.9-6.8-1.4-6.7-5.5c0.1-2,1.6-3.1,3.8-3.1
		c1.5,0,3.1,0.8,3.9,2l-1.1,1c-0.9-1.1-1.7-1.6-3-1.6c-1.3,0-2.1,0.7-2.1,1.7c0,2.5,6.7,1.2,6.7,5.5c0,2.2-1.9,3.3-4,3.3
		c-1.8,0-3.5-0.8-4.6-2.2L466,117.5z"/>
	<path d="M478.4,118v2.4h-2.2V118H478.4z"/>
</g>
<g>
	<g>
		<path d="M723.7,136.5h1.1c0.7,0,1-0.3,1-0.8c0-0.5-0.4-0.7-1-0.7h-1.1V136.5z M723.7,140h-1.3v-5.9h2.2c1.5,0,2.4,0.4,2.4,1.8
			c0,1.1-0.6,1.5-1.6,1.6l1.5,2.6h-1.3l-1.4-2.5h-0.6V140z M724.7,132.7c-2.3,0-4.1,1.8-4.1,4.3s1.8,4.3,4.1,4.3
			c2.3,0,4.1-1.8,4.1-4.3S726.9,132.7,724.7,132.7 M719.1,137.1c0-3.4,2.6-5.4,5.6-5.4c2.9,0,5.6,2,5.6,5.4c0,3.4-2.6,5.4-5.6,5.4
			C721.8,142.4,719.1,140.4,719.1,137.1"/>
	</g>
	<g>
		<path d="M107.3,136.4h-4.8v-4.3H117v4.3h-4.8v24.4h-4.9V136.4z"/>
		<path d="M119.6,160.7v-28.7h4.4v9.3c1.6-1.4,2.6-2.4,5.2-2.4c2.3,0,3.7,1.7,3.7,4.5v17.3h-4.4v-16.6c0-1.1-0.6-1.5-1.6-1.5
			c-1,0-1.8,0.6-2.9,1.3v16.8H119.6z"/>
		<path d="M150.9,150.9h-9.4v3.1c0,2.5,0.9,3.5,2.5,3.5c1.6,0,2.5-1,2.5-3.5v-0.5h4.4c-0.1,4.5-1.9,7.6-6.9,7.6
			c-5.1,0-6.9-3.3-6.9-7.9v-6.3c0-4.7,1.8-7.9,6.9-7.9c5.1,0,6.9,3.3,6.9,7.9V150.9z M146.4,147.2v-1.1c0-2.5-0.9-3.5-2.5-3.5
			c-1.6,0-2.5,1-2.5,3.5v1.1H146.4z"/>
		<path d="M167.9,139.4v2.2h0.1c1.5-1.9,2.5-2.6,4.8-2.6c2.8,0,4.5,2.1,4.5,6v10.2c0,3.9-1.7,6-4.5,6c-1.9,0-2.9-0.8-4.6-2.2v8.6
			h-4.4v-28.1H167.9z M168.2,156.4c0.9,0.6,1.7,1.1,2.5,1.1c1.2,0,2.1-0.6,2.1-3.5v-7.9c0-2.8-1-3.5-2.1-3.5c-0.9,0-1.7,0.5-2.5,1.1
			V156.4z"/>
		<path d="M194.9,150.9h-9.4v3.1c0,2.5,0.9,3.5,2.5,3.5c1.6,0,2.5-1,2.5-3.5v-0.5h4.4c-0.1,4.5-1.9,7.6-6.9,7.6
			c-5.1,0-6.9-3.3-6.9-7.9v-6.3c0-4.7,1.8-7.9,6.9-7.9c5.1,0,6.9,3.3,6.9,7.9V150.9z M190.5,147.2v-1.1c0-2.5-0.9-3.5-2.5-3.5
			c-1.6,0-2.5,1-2.5,3.5v1.1H190.5z"/>
		<path d="M198.7,146.9c0-4.7,1.8-7.9,6.9-7.9s6.9,3.3,6.9,7.9v6.3c0,4.7-1.8,7.9-6.9,7.9s-6.9-3.3-6.9-7.9V146.9z M208.1,146.1
			c0-2.5-0.9-3.5-2.5-3.5c-1.6,0-2.5,1-2.5,3.5v7.9c0,2.5,0.9,3.5,2.5,3.5c1.6,0,2.5-1,2.5-3.5V146.1z"/>
		<path d="M220.8,139.4v2.2h0.1c1.5-1.9,2.5-2.6,4.8-2.6c2.8,0,4.5,2.1,4.5,6v10.2c0,3.9-1.7,6-4.5,6c-1.9,0-2.9-0.8-4.6-2.2v8.6
			h-4.4v-28.1H220.8z M221,156.4c0.9,0.6,1.7,1.1,2.5,1.1c1.2,0,2.1-0.6,2.1-3.5v-7.9c0-2.8-1-3.5-2.1-3.5c-0.9,0-1.7,0.5-2.5,1.1
			V156.4z"/>
		<path d="M234.2,160.7v-28.7h4.4v28.7H234.2z"/>
		<path d="M256.6,150.9h-9.4v3.1c0,2.5,0.9,3.5,2.5,3.5c1.6,0,2.5-1,2.5-3.5v-0.5h4.4c-0.1,4.5-1.9,7.6-6.9,7.6
			c-5.1,0-6.9-3.3-6.9-7.9v-6.3c0-4.7,1.8-7.9,6.9-7.9c5.1,0,6.9,3.3,6.9,7.9V150.9z M252.1,147.2v-1.1c0-2.5-0.9-3.5-2.5-3.5
			c-1.6,0-2.5,1-2.5,3.5v1.1H252.1z"/>
		<path d="M269.2,146.9c0-4.7,1.8-7.9,6.9-7.9c5.1,0,6.9,3.3,6.9,7.9v6.3c0,4.7-1.8,7.9-6.9,7.9c-5.1,0-6.9-3.3-6.9-7.9V146.9z
			 M278.6,146.1c0-2.5-0.9-3.5-2.5-3.5c-1.6,0-2.5,1-2.5,3.5v7.9c0,2.5,0.9,3.5,2.5,3.5c1.6,0,2.5-1,2.5-3.5V146.1z"/>
		<path d="M287.9,143h-2.6v-3.7h2.6v-2.7c0-3.5,1.8-5,5-5h2.2v3.7h-1.3c-1.1,0-1.5,0.4-1.5,1.4v2.6h2.5v3.7h-2.5v17.7h-4.4V143z"/>
		<path d="M310,136.4h-4.8v-4.3h14.5v4.3h-4.8v24.4H310V136.4z"/>
		<path d="M322.4,160.7v-28.7h4.4v9.3c1.6-1.4,2.6-2.4,5.2-2.4c2.3,0,3.7,1.7,3.7,4.5v17.3h-4.4v-16.6c0-1.1-0.6-1.5-1.6-1.5
			c-1,0-1.8,0.6-2.9,1.3v16.8H322.4z"/>
		<path d="M353.6,150.9h-9.4v3.1c0,2.5,0.9,3.5,2.5,3.5s2.5-1,2.5-3.5v-0.5h4.4c-0.1,4.5-1.9,7.6-6.9,7.6c-5.1,0-6.9-3.3-6.9-7.9
			v-6.3c0-4.7,1.8-7.9,6.9-7.9s6.9,3.3,6.9,7.9V150.9z M349.1,147.2v-1.1c0-2.5-0.9-3.5-2.5-3.5s-2.5,1-2.5,3.5v1.1H349.1z"/>
		<path d="M366.7,132.1h4.9v21.6c0,2.1,0.8,3.1,2.6,3.1c1.8,0,2.6-1,2.6-3.1v-21.6h4.9v21.4c0,4.9-2.9,7.6-7.5,7.6
			c-4.7,0-7.5-2.7-7.5-7.6V132.1z"/>
		<path d="M386.3,160.7v-21.4h4.2v2.1c1.9-1.6,2.8-2.5,5.4-2.5c2.3,0,3.7,1.7,3.7,4.5v17.3h-4.4v-16.6c0-1.1-0.6-1.5-1.6-1.5
			c-1,0-1.8,0.6-2.9,1.3v16.8H386.3z"/>
		<path d="M403.9,136.1v-4h4.4v4H403.9z M403.9,160.7v-21.4h4.4v21.4H403.9z"/>
		<path d="M411,143v-3.7h2.5v-5.8h4.4v5.8h3v3.7h-3v12.3c0,1.1,0.5,1.7,1.5,1.7h1.5v3.8c-0.6,0.2-1.1,0.2-2.2,0.2
			c-3.3,0-5.2-1.5-5.2-4.8V143H411z"/>
		<path d="M437.3,150.9h-9.4v3.1c0,2.5,0.9,3.5,2.5,3.5c1.6,0,2.5-1,2.5-3.5v-0.5h4.4c-0.1,4.5-1.9,7.6-6.9,7.6
			c-5.1,0-6.9-3.3-6.9-7.9v-6.3c0-4.7,1.8-7.9,6.9-7.9c5.1,0,6.9,3.3,6.9,7.9V150.9z M432.9,147.2v-1.1c0-2.5-0.9-3.5-2.5-3.5
			c-1.6,0-2.5,1-2.5,3.5v1.1H432.9z"/>
		<path d="M450.5,160.7v-2.2h-0.1c-1.5,1.9-2.5,2.6-4.8,2.6c-2.8,0-4.5-2.1-4.5-6v-10.2c0-3.9,1.7-6,4.5-6c1.9,0,2.9,0.8,4.6,2.2
			v-9.1h4.4v28.7H450.5z M450.3,143.7c-0.9-0.6-1.7-1.1-2.5-1.1c-1.2,0-2.1,0.6-2.1,3.5v7.9c0,2.8,1,3.5,2.1,3.5
			c0.9,0,1.7-0.5,2.5-1.1V143.7z"/>
		<path d="M487.8,132.1v28.7h-4.3v-22.4h-0.1l-4.4,22.4h-2.4l-4.4-22.4H472v22.4h-4.3v-28.7h6.5l3.5,16.8h0.1l3.5-16.8H487.8z"/>
		<path d="M505.6,150.9h-9.4v3.1c0,2.5,0.9,3.5,2.5,3.5c1.6,0,2.5-1,2.5-3.5v-0.5h4.4c-0.1,4.5-1.9,7.6-6.9,7.6
			c-5.1,0-6.9-3.3-6.9-7.9v-6.3c0-4.7,1.8-7.9,6.9-7.9c5.1,0,6.9,3.3,6.9,7.9V150.9z M501.2,147.2v-1.1c0-2.5-0.9-3.5-2.5-3.5
			c-1.6,0-2.5,1-2.5,3.5v1.1H501.2z"/>
		<path d="M507.9,143v-3.7h2.5v-5.8h4.4v5.8h3v3.7h-3v12.3c0,1.1,0.5,1.7,1.5,1.7h1.5v3.8c-0.6,0.2-1.1,0.2-2.2,0.2
			c-3.3,0-5.2-1.5-5.2-4.8V143H507.9z"/>
		<path d="M520.7,160.7v-28.7h4.4v9.3c1.6-1.4,2.6-2.4,5.2-2.4c2.3,0,3.7,1.7,3.7,4.5v17.3h-4.4v-16.6c0-1.1-0.6-1.5-1.6-1.5
			c-1,0-1.8,0.6-2.9,1.3v16.8H520.7z"/>
		<path d="M538.1,146.9c0-4.7,1.8-7.9,6.9-7.9c5.1,0,6.9,3.3,6.9,7.9v6.3c0,4.7-1.8,7.9-6.9,7.9c-5.1,0-6.9-3.3-6.9-7.9V146.9z
			 M547.5,146.1c0-2.5-0.9-3.5-2.5-3.5c-1.6,0-2.5,1-2.5,3.5v7.9c0,2.5,0.9,3.5,2.5,3.5c1.6,0,2.5-1,2.5-3.5V146.1z"/>
		<path d="M565.1,160.7v-2.2H565c-1.5,1.9-2.5,2.6-4.8,2.6c-2.8,0-4.5-2.1-4.5-6v-10.2c0-3.9,1.7-6,4.5-6c1.9,0,2.9,0.8,4.6,2.2
			v-9.1h4.4v28.7H565.1z M564.8,143.7c-0.9-0.6-1.7-1.1-2.5-1.1c-1.2,0-2.1,0.6-2.1,3.5v7.9c0,2.8,1,3.5,2.1,3.5
			c0.9,0,1.7-0.5,2.5-1.1V143.7z"/>
		<path d="M573.6,136.1v-4h4.4v4H573.6z M573.6,160.7v-21.4h4.4v21.4H573.6z"/>
		<path d="M590.5,145.3c-0.3-1.7-1.1-2.7-2.5-2.7c-1.2,0-1.9,0.6-1.9,1.7c0,3.3,8.3,4.7,8.3,11c0,3.8-2.6,5.8-6.2,5.8
			c-3.9,0-6.1-2.2-6.8-6l3.9-1.1c0.3,1.8,0.9,3.4,2.9,3.4c1.2,0,2-0.7,2-1.9c0-3.7-8.3-5.1-8.3-10.9c0-3.4,2.6-5.7,6-5.7
			c3.5,0,5.8,2.3,6.5,5.7L590.5,145.3z"/>
		<path d="M596.1,143v-3.7h2.5v-5.8h4.4v5.8h3v3.7h-3v12.3c0,1.1,0.5,1.7,1.5,1.7h1.5v3.8c-0.6,0.2-1.1,0.2-2.2,0.2
			c-3.3,0-5.2-1.5-5.2-4.8V143H596.1z"/>
		<path d="M627.8,141.6v-2.2c0-2.4-1.1-3.5-2.4-3.5c-2,0-2.6,1-2.6,3.2v14.5c0,2.1,0.6,3.2,2.6,3.2c1.8,0,2.4-1,2.4-2.9v-3.5h4.9
			v3.3c0,4-2.4,7.3-7.3,7.3c-5.2,0-7.5-3.3-7.5-7.3V139c0-4,2.4-7.3,7.5-7.3c4.9,0,7.3,3.6,7.3,7.9v2.1H627.8z"/>
		<path d="M637.5,160.7v-28.7h4.4v9.3c1.6-1.4,2.6-2.4,5.2-2.4c2.3,0,3.7,1.7,3.7,4.5v17.3h-4.4v-16.6c0-1.1-0.6-1.5-1.6-1.5
			c-1,0-1.8,0.6-2.9,1.3v16.8H637.5z"/>
		<path d="M668.5,139.4v21.4h-4.2v-2.1c-1.9,1.6-2.8,2.5-5.4,2.5c-2.3,0-3.7-1.7-3.7-4.5v-17.3h4.4v16.6c0,1.1,0.6,1.5,1.6,1.5
			s1.8-0.6,2.9-1.4v-16.8H668.5z"/>
		<path d="M672.8,160.7v-21.4h4.2v2.5h0.1c1.1-1.8,2.9-2.9,5-2.9h0.9v4.6c-0.8-0.2-1.5-0.4-2.9-0.4c-1.5,0-3,1-3,2.9v14.7H672.8z"/>
		<path d="M695.1,146.7v-0.6c0-2.5-0.9-3.5-2.5-3.5c-1.6,0-2.5,1-2.5,3.5v7.9c0,2.5,0.9,3.5,2.5,3.5c1.6,0,2.5-1,2.5-3.5v-1.3h4.4
			v0.6c0,4.7-1.8,7.9-6.9,7.9s-6.9-3.3-6.9-7.9v-6.3c0-4.7,1.8-7.9,6.9-7.9c5,0,6.8,3.1,6.9,7.7H695.1z"/>
		<path d="M703.6,160.7v-28.7h4.4v9.3c1.6-1.4,2.6-2.4,5.2-2.4c2.3,0,3.7,1.7,3.7,4.5v17.3h-4.4v-16.6c0-1.1-0.6-1.5-1.6-1.5
			s-1.8,0.6-2.9,1.3v16.8H703.6z"/>
	</g>
</g>
<g>
	<polygon class="st0" points="102.2,67.9 67.7,67.9 67.7,25 64.6,28 64.6,67.9 33,67.9 30,71 64.6,71 64.6,174.1 67.7,171.3 
		67.7,71 99.3,71 	"/>
	<path class="st1" d="M45,120.9c-15.5-8.9-13.2-19.8-13.2-19.8c0-6.6,5.5-11.1,15.3-19.6c3-2.6,5.1-5.5,6.6-8.4H24.8l7.1-7.5h24.7
		c0.8-3.2,0.9-5.7,0.9-6.3V13.7c0.1-0.3-0.6,0.7-0.6,0.7c0,2.3-0.4,6.3-2.3,13.1c-3.7,13.2-19.3,23.5-23.3,28.3
		c-8.5,10.2-13.1,19.9-10.8,36.7c1.1,7.9,5.3,18.5,13.7,24.3c5.2,3.5,16.9,9,19,11.4c2.1,2.4,3.7,8.5,2.6,6.1
		c-1.1-2.4-4.5-8.5-18.5-13c-14-4.5-18.2-16.1-21.4-27.5C12.8,82.5,13.8,68,13.8,68l-0.7,0.6c0,0-0.9,41.7-0.9,45.9
		c0,4.2,0.8,12.7,4.5,19.6c9.2,17.1,16.4,14.5,29.1,19c11.2,4,11.4,10.3,12.2,14.3c0.8,4,0.8,17.6,0.8,17.6l1.3-1.2v-29.9
		c0-3.2,0.3-6.3-0.8-15.1C58.2,130.1,54.3,126.2,45,120.9"/>
</g>
</svg>
