<svg id="Layer_1" data-name="Layer 1" xmlns="http://www.w3.org/2000/svg" viewBox="0 0 264 36"><defs><style>.cls-1{fill:#00a291;}</style></defs><title>emerald insight logo - colour</title><path d="M138.15,12.91a.77.77,0,0,0-.87-.86h-1.57V7.83h4.75c1.84,0,2.63.82,2.63,2.66V22.73a.79.79,0,0,0,.86.87h1.57v4.18h-4.75c-1.84,0-2.62-.78-2.62-2.66ZM138.38,0h4.31V4.58h-4.31Zm11.33,12.91a.77.77,0,0,0-.86-.86h-1.57V7.83h4.59c1.76,0,2.62.82,2.62,2.23v.58a6.14,6.14,0,0,1-.07.86h.07a7.7,7.7,0,0,1,7.06-4.14c4.43,0,7,2.31,7,7.59v7.78a.79.79,0,0,0,.86.87H171v4.18h-4.74c-1.89,0-2.67-.78-2.67-2.66V16c0-2.43-.63-4.07-3.14-4.07A5.49,5.49,0,0,0,155,16a8.52,8.52,0,0,0-.39,2.66v9.15h-4.94ZM175,21.44s2.55,2.94,6,2.94c1.53,0,2.7-.63,2.7-2,0-2.82-10.54-2.78-10.54-9.23,0-4,3.61-5.83,7.76-5.83,2.71,0,7,.9,7,4.14v2.08h-4.39v-1c0-.94-1.41-1.41-2.51-1.41-1.77,0-3,.63-3,1.8,0,3.13,10.62,2.51,10.62,9.16,0,3.75-3.33,6.1-7.68,6.1a11,11,0,0,1-8.31-3.56Zm18.43-8.53a.77.77,0,0,0-.86-.86H191V7.83h4.74c1.84,0,2.63.82,2.63,2.66V22.73a.79.79,0,0,0,.86.87h1.57v4.18h-4.75c-1.84,0-2.62-.78-2.62-2.66ZM193.66,0H198V4.58h-4.31Zm18.19,7.36c4.63,0,6.16,2.81,6.16,2.81h.08v-.5c0-.9.63-1.84,2.19-1.84h4.63v4.22h-1.53a.76.76,0,0,0-.86.78V26.57c0,6.85-5.33,9.43-10.55,9.43a15.89,15.89,0,0,1-7.09-1.72l1.52-3.91a13,13,0,0,0,5.53,1.33c3,0,5.65-1.3,5.65-4.9v-.93c0-.47,0-1.06,0-1.06h-.08c-1.18,1.68-2.9,2.58-5.57,2.58-5.72,0-9-4.62-9-10.09S206.09,7.36,211.85,7.36Zm5.85,10c0-4.53-2.28-5.75-5-5.75-3,0-4.67,2.19-4.67,5.56s1.77,6.06,5,6.06C215.42,23.2,217.7,21.83,217.7,17.33ZM228.83,5.09a.76.76,0,0,0-.86-.86H226.4V0h4.74c1.85,0,2.67.82,2.67,2.62v7a16.63,16.63,0,0,1-.08,1.68h.08a7.63,7.63,0,0,1,6.86-3.95c4.47,0,7,2.31,7,7.59v7.78a.79.79,0,0,0,.86.87h1.57v4.18h-4.74c-1.85,0-2.63-.78-2.63-2.66V16c0-2.43-.67-4.07-3.18-4.07A5.63,5.63,0,0,0,234.12,16a9.25,9.25,0,0,0-.31,2.59v9.15h-5Zm25.33,6.69h-2.59V7.83h2.71V2.39h4.86V7.83h4.55v3.95h-4.55v8.06c0,3.29,2.59,3.76,4,3.76a4.45,4.45,0,0,0,.9-.08v4.34a9,9,0,0,1-1.53.12c-2.78,0-8.31-.82-8.31-7.51Z"/><path class="cls-1" d="M9.25,8.34C4.38,8.34,0,11.91,0,18.33a9.55,9.55,0,0,0,9.82,9.91,10.36,10.36,0,0,0,6.77-2.62l-.87-1.33a8.64,8.64,0,0,1-5.9,2.39c-4.42,0-8.15-3.15-8.15-8.66H16.93A9.91,9.91,0,0,0,17,17C17,12.4,14.42,8.34,9.25,8.34Zm-7.46,8.2c.68-4.44,3.92-6.72,7.42-6.72,3.16,0,5.93,2.09,6.12,6.72Zm40.83-8.2a8.27,8.27,0,0,0-7.23,5.16h-.08c-.42-3.38-2.21-5.16-6-5.16A8.5,8.5,0,0,0,22,13.69h-.07a8,8,0,0,0,.15-1.55V8.79h-1.6v19h1.6V18.52a9.79,9.79,0,0,1,.3-2.59c.88-3.15,3.54-6.11,6.93-6.11,4.19,0,4.64,3.23,4.64,6.49V27.78h1.6V18.52a9.82,9.82,0,0,1,.38-2.93c.84-3,3.54-5.77,6.7-5.77,4,0,4.75,2.92,4.75,6.49V27.78H49v-12C49,11.22,47.53,8.34,42.62,8.34Zm18.8,0c-4.87,0-9.25,3.57-9.25,10A9.55,9.55,0,0,0,62,28.24a10.36,10.36,0,0,0,6.77-2.62l-.87-1.33A8.64,8.64,0,0,1,62,26.68c-4.42,0-8.14-3.15-8.14-8.66H69.1a9.91,9.91,0,0,0,.08-1C69.18,12.4,66.59,8.34,61.42,8.34ZM54,16.54c.68-4.44,3.92-6.72,7.42-6.72,3.16,0,5.93,2.09,6.12,6.72ZM74.16,14h-.07a8,8,0,0,0,.15-1.56V8.79h-1.6v19h1.6v-8.2a13.46,13.46,0,0,1,.57-4c.84-2.81,2.7-5.31,5.67-5.31a6.82,6.82,0,0,1,.88.07V8.76a5.81,5.81,0,0,0-1.11-.12C77.25,8.64,75.12,11,74.16,14ZM90,8.34a10,10,0,0,0-6.43,2.09l.91,1.29A9,9,0,0,1,89.88,9.9c3,0,5.21,1.44,5.21,5.65v.65H93.84c-3.39,0-11.8.08-11.8,6.53,0,3.8,3.39,5.51,6.47,5.51a7.31,7.31,0,0,0,6.66-4.67h.07a8.74,8.74,0,0,0-.15,1.71v2.5h1.6V15.52C96.69,10.77,94.33,8.34,90,8.34Zm5.13,10.37c0,3.76-2.36,8.05-6.5,8.05-3.24,0-4.87-2.13-4.87-4.14,0-4.94,6.92-4.94,10.16-4.94h1.21Zm5.56,9.07h1.6V1.11h-1.6Zm19.56-27V11.07a7.55,7.55,0,0,0,.16,1.56h-.08a7.35,7.35,0,0,0-6.58-4.29c-5,0-8.53,3.91-8.53,10s3.12,10,8.22,10A7.29,7.29,0,0,0,120.29,24h.08a5.85,5.85,0,0,0-.16,1.44v2.39h1.6V.82Zm-6.73,25.86c-3.88,0-6.62-3.26-6.62-8.39,0-5.32,3-8.39,6.77-8.39,4.45,0,6.62,4.13,6.62,8.35C120.25,24.21,117,26.68,113.48,26.68Z"/></svg>