<?xml version="1.0" encoding="UTF-8" standalone="no"?>
<svg width="726px" height="197px" viewBox="0 0 726 197" version="1.1" xmlns="http://www.w3.org/2000/svg" xmlns:xlink="http://www.w3.org/1999/xlink" xmlns:sketch="http://www.bohemiancoding.com/sketch/ns">
    <!-- Generator: Sketch 3.2 (9964) - http://www.bohemiancoding.com/sketch -->
    <title>logo-aaas</title>
    <desc>Created with Sketch.</desc>
    <defs></defs>
    <g id="Page-1" stroke="none" stroke-width="1" fill="none" fill-rule="evenodd" sketch:type="MSPage">
        <g id="logo-aaas" sketch:type="MSLayerGroup">
            <path d="M123.13253,0 C142.349648,18.1533009 190.723142,163.083997 201.761446,196.150695 L201.761446,0 L123.13253,0" id="Fill-5" fill="#FFFFFF" sketch:type="MSShapeGroup"></path>
            <path d="M150.327053,195.834872 C139.289013,162.110006 97.4064506,18.8034774 75.1367012,0 L0,0 L0,195.825826 L1.62702048,195.825826 L74.3542819,4.85660696 L13.5794952,195.825826 L15.5233181,195.825826 L81.8211265,17.8284322 L26.6227482,195.825826 L29.2175024,195.825826 L89.2884108,33.3914783 L40.0440181,195.667651 L42.3133506,195.667651 L73.377753,129.042782 L65.9109964,129.042782 L96.1046759,48.9539974 L73.377753,129.034263 L80.1942819,129.034263 L52.5950048,195.834872 L150.327053,195.834872" id="Fill-6" fill="#FFFFFF" sketch:type="MSShapeGroup"></path>
            <path d="M647.72126,190.582697 C645.83918,190.582697 643.015575,190.389216 640.245005,189.467217 C635.961752,188.246083 630.728883,184.803564 624.114819,168.476607 C615.67127,147.459824 597.773253,100.789305 587.086933,72.9046104 L578.854819,51.5013052 C576.577131,45.62574 575.618369,43.9130435 573.700843,43.9130435 C571.792465,43.9130435 570.877766,45.6605191 568.538336,52.0985226 L524.430329,172.58757 C520.692553,182.950961 516.954161,189.150956 508.880449,190.204781 C508.880449,190.204781 508.4231,190.240175 507.780524,190.284176 C506.63759,190.108348 505.450153,189.870866 504.245565,189.467217 C499.962312,188.246083 494.728916,184.803564 488.114852,168.476607 C479.662683,147.424957 461.746988,100.701391 451.034282,72.7813904 L442.854852,51.5013052 C440.577164,45.62574 439.62702,43.9130435 437.700876,43.9130435 C435.792498,43.9130435 434.88633,45.6605191 432.538369,52.0985226 L388.429834,172.58757 C384.692498,182.950961 380.954194,189.150956 372.880482,190.204781 C372.880482,190.204781 372.423045,190.240175 371.781084,190.284176 C370.637623,190.108348 369.450186,189.870866 368.254217,189.467217 C363.962345,188.246083 358.737743,184.803564 352.11506,168.476607 C343.671775,147.459824 325.773582,100.789305 315.087437,72.9046104 L306.855148,51.5013052 C304.577196,45.62574 303.627229,43.9130435 301.701172,43.9130435 C299.79253,43.9130435 298.886627,45.6605191 296.538313,52.0985226 L252.430394,172.58757 C248.69253,182.950961 244.954666,189.150956 236.88069,190.204781 C236.871895,190.204781 231.366024,190.582697 231.366024,190.582697 C229.756682,190.582697 228.674699,191.434522 228.674699,192.690435 C228.674699,195.193303 231.805959,195.193303 233.309847,195.193303 L250.838466,194.75426 L255.262618,194.604692 L260.196187,194.815914 L270.416627,195.193303 C273.609365,195.193303 274.277711,193.832262 274.277711,192.690435 C274.277711,191.90887 273.908401,190.582697 271.392892,190.582697 L269.449333,190.582697 C266.96012,190.582697 263.010996,189.31765 263.010996,185.90139 C263.010996,182.493738 263.952345,177.98826 265.676024,173.228174 C265.684907,173.210433 277.338346,138.870697 277.338346,138.870697 C277.672739,138.027478 278.042136,137.957305 278.385148,137.957305 L320.153373,137.957305 C320.66367,137.957305 320.778007,138.036085 321.059277,138.598963 C321.059277,138.615562 339.089046,186.234866 339.089046,186.234866 C339.370843,186.981563 339.511478,187.675214 339.511478,188.289997 C339.511478,188.747307 339.432586,189.150956 339.265125,189.493477 C339.010329,190.028953 338.649639,190.196262 338.509004,190.248782 C336.776441,190.679744 336.503702,191.847217 336.503702,192.496954 C336.503702,194.464258 338.693614,194.569825 342.334819,194.75426 L343.222781,194.798173 C350.522869,195.008868 359.353494,195.140695 368.535487,195.175562 C368.816757,195.184696 369.080876,195.193303 369.309551,195.193303 L369.582289,195.184696 C370.972104,195.184696 372.379069,195.193303 373.777502,195.193303 C374.595542,195.193303 375.307952,195.131649 375.923614,195.026521 L386.829639,194.75426 L391.262586,194.604692 L396.187887,194.815914 L406.41633,195.193303 C409.609333,195.193303 410.277678,193.832262 410.277678,192.690435 C410.277678,191.90887 409.899222,190.582697 407.392859,190.582697 L405.449036,190.582697 C402.959824,190.582697 399.010964,189.31765 399.010964,185.90139 C399.010964,182.493738 399.95152,177.98826 401.675728,173.228174 C401.675728,173.210433 413.338577,138.870697 413.338577,138.870697 C413.67253,138.027478 414.04184,137.957305 414.384852,137.957305 L456.152813,137.957305 C456.663373,137.957305 456.777711,138.036085 457.058981,138.598963 C457.058981,138.615562 475.089541,186.234866 475.089541,186.234866 C475.370811,186.981563 475.511446,187.675214 475.511446,188.281477 C475.511446,188.747307 475.432553,189.150956 475.265093,189.493477 C475.01012,190.028953 474.649342,190.196262 474.508707,190.248782 C472.767261,190.679744 472.50367,191.847217 472.50367,192.496954 C472.50367,194.464258 474.693406,194.569825 478.334611,194.75426 L479.223012,194.798173 C486.523188,195.008868 495.353198,195.140695 504.535454,195.175562 C504.817252,195.184696 505.080843,195.193303 505.309518,195.193303 L505.581729,195.184696 C506.972071,195.184696 508.379036,195.193303 509.77747,195.193303 C510.59507,195.193303 511.307919,195.131649 511.92367,195.026521 L522.838137,194.75426 L527.262113,194.604692 L532.196473,194.815914 L542.416386,195.193303 C545.6093,195.193303 546.277646,193.832262 546.277646,192.690435 C546.277646,191.90887 545.899189,190.582697 543.392827,190.582697 L541.449004,190.582697 C538.959792,190.582697 535.011019,189.31765 535.011019,185.90139 C535.011019,182.493738 535.952016,177.98826 537.675783,173.228174 C537.675783,173.210433 549.338017,138.870697 549.338017,138.870697 C549.672498,138.027478 550.041807,137.957305 550.384819,137.957305 L592.153396,137.957305 C592.663341,137.957305 592.777678,138.036085 593.058948,138.598963 C593.058948,138.615562 611.088981,186.234866 611.088981,186.234866 C611.370778,186.981563 611.511501,187.675214 611.511501,188.289997 C611.511501,188.747307 611.431993,189.150956 611.26506,189.493477 C611.010088,190.028953 610.64931,190.196262 610.508147,190.248782 C608.767229,190.679744 608.503725,191.847217 608.503725,192.496954 C608.503725,194.464258 610.693373,194.569825 614.334578,194.75426 L615.22298,194.798173 C623.903823,195.052781 634.748017,195.193303 645.77691,195.193303 C648.98759,195.193303 650.60608,194.350084 650.60608,192.690435 C650.60608,191.294615 649.638258,190.582697 647.72126,190.582697 L647.72126,190.582697 Z M589.523549,129.086783 L552.803758,129.086783 C552.803758,129.069042 552.811761,129.025656 552.811761,129.025656 C552.838675,128.963475 569.93677,76.5840843 569.93677,76.5840843 C570.173976,75.8641739 570.358675,75.4862583 570.490163,75.2755635 C570.622794,75.4862583 570.816024,75.8727809 571.053318,76.5840843 C571.053318,76.6017374 589.514402,128.981128 589.514402,128.981128 C589.514402,128.972609 589.505783,128.972609 589.505783,128.981128 C589.505783,128.990262 589.514402,129.042782 589.523549,129.086783 L589.523549,129.086783 Z M453.523494,129.086783 L416.80379,129.086783 C416.80379,129.069042 416.812322,129.025656 416.812322,129.025656 C416.838619,128.963475 433.936714,76.5840843 433.936714,76.5840843 C434.174008,75.8641739 434.358707,75.4862583 434.490723,75.2755635 C434.631358,75.4862583 434.816057,75.8641739 435.053878,76.5840843 C435.06241,76.6017374 453.514435,128.981128 453.514435,128.981128 C453.514435,128.972609 453.505816,128.972609 453.505816,128.981128 C453.505816,128.990262 453.514435,129.042782 453.523494,129.086783 L453.523494,129.086783 Z M317.523527,129.086783 L280.803735,129.086783 C280.803735,129.069042 280.821501,129.025656 280.821501,129.025656 C280.838916,128.963475 297.936747,76.5840843 297.936747,76.5840843 C298.174305,75.8641739 298.358916,75.4862583 298.490755,75.2755635 C298.63139,75.4862583 298.816353,75.8727809 299.053823,76.5840843 C299.062442,76.6017374 317.514907,128.981128 317.514907,128.981128 C317.514907,128.972609 317.506112,128.972609 317.506112,128.981128 C317.506112,128.990262 317.523527,129.042782 317.523527,129.086783 L317.523527,129.086783 Z" id="Fill-7" fill="#FFFFFF" sketch:type="MSShapeGroup"></path>
            <path d="M653.754578,190.775738 C651.036692,189.414697 650.843373,188.641652 650.843373,183.407744 C650.843373,173.70261 651.617525,165.93896 651.810755,162.838523 C652.004513,160.704525 652.399681,159.737999 653.367502,159.737999 C654.537261,159.737999 654.731019,160.318003 654.731019,161.872524 C654.731019,163.611481 654.731019,166.33409 655.311325,169.047564 C658.222442,183.407744 671.045376,188.835221 684.062595,188.835221 C702.717525,188.835221 711.846571,175.450086 711.846571,163.032004 C711.846571,149.64687 706.218095,141.883307 689.506988,128.112264 L680.764402,120.92809 C660.166265,104.056523 655.505083,92.0244374 655.505083,78.8327835 C655.505083,58.0706087 671.045376,43.9130435 695.725445,43.9130435 C703.297743,43.9130435 708.935454,44.6860009 713.790394,45.8540878 C717.484194,46.6270452 719.041469,46.8199991 720.589157,46.8199991 C722.145376,46.8199991 722.53298,47.2065217 722.53298,48.181567 C722.53298,49.1475661 721.758828,55.5500878 721.758828,68.7417417 C721.758828,71.8507852 721.37184,73.2032191 720.395839,73.2032191 C719.234787,73.2032191 719.041469,72.2373078 718.839092,70.6827861 C718.645334,68.3557461 717.484194,63.1206965 716.315051,60.9866983 C715.153911,58.852173 709.903276,50.7026148 692.031117,50.7026148 C678.627349,50.7026148 668.134787,59.0461809 668.134787,73.2032191 C668.134787,84.26026 673.570033,90.8563504 691.837887,105.79548 L697.273133,110.064003 C720.202081,128.112264 725.646473,140.135217 725.646473,155.662957 C725.646473,163.611481 722.53298,178.357657 709.128684,187.868695 C700.773175,193.683221 690.281052,196.010173 679.788489,196.010173 C670.658916,196.010173 661.722484,194.657739 653.754578,190.775738 L653.754578,190.775738 Z" id="Fill-8" fill="#FFFFFF" sketch:type="MSShapeGroup"></path>
            <path d="M653.754578,190.775738 C651.036692,189.414697 650.843373,188.641652 650.843373,183.407744 C650.843373,173.70261 651.617525,165.93896 651.810755,162.838523 C652.004513,160.704525 652.399681,159.737999 653.367502,159.737999 C654.537261,159.737999 654.731019,160.318003 654.731019,161.872524 C654.731019,163.611481 654.731019,166.33409 655.311325,169.047564 C658.222442,183.407744 671.045376,188.835221 684.062595,188.835221 C702.717525,188.835221 711.846571,175.450086 711.846571,163.032004 C711.846571,149.64687 706.218095,141.883307 689.506988,128.112264 L680.764402,120.92809 C660.166265,104.056523 655.505083,92.0244374 655.505083,78.8327835 C655.505083,58.0706087 671.045376,43.9130435 695.725445,43.9130435 C703.297743,43.9130435 708.935454,44.6860009 713.790394,45.8540878 C717.484194,46.6270452 719.041469,46.8199991 720.589157,46.8199991 C722.145376,46.8199991 722.53298,47.2065217 722.53298,48.181567 C722.53298,49.1475661 721.758828,55.5500878 721.758828,68.7417417 C721.758828,71.8507852 721.37184,73.2032191 720.395839,73.2032191 C719.234787,73.2032191 719.041469,72.2373078 718.839092,70.6827861 C718.645334,68.3557461 717.484194,63.1206965 716.315051,60.9866983 C715.153911,58.852173 709.903276,50.7026148 692.031117,50.7026148 C678.627349,50.7026148 668.134787,59.0461809 668.134787,73.2032191 C668.134787,84.26026 673.570033,90.8563504 691.837887,105.79548 L697.273133,110.064003 C720.202081,128.112264 725.646473,140.135217 725.646473,155.662957 C725.646473,163.611481 722.53298,178.357657 709.128684,187.868695 C700.773175,193.683221 690.281052,196.010173 679.788489,196.010173 C670.658916,196.010173 661.722484,194.657739 653.754578,190.775738 L653.754578,190.775738 Z" id="Stroke-9" stroke="#FFFFFF" stroke-width="0.215" sketch:type="MSShapeGroup"></path>
        </g>
    </g>
</svg>